<svg width="3292" height="2389" viewBox="0 0 3292 2389" fill="none" xmlns="http://www.w3.org/2000/svg">
<path d="M3153.6 2092.07C3118.23 2125.59 3013.96 2118.68 2960.79 2141.47C2880.64 2175.81 2843.89 2230.53 2733.44 2240.05H2733.43C2350.43 2273.08 1812.11 2191.79 1304.61 2239.25C1258.93 2243.52 1181.64 2208.48 1136.59 2215.01C1029.48 2230.56 962.265 2279.52 870.96 2281.95C80.9533 2303 -127.697 1862.44 71.6839 1463.19C71.6839 1463.19 294.704 1119.04 238.976 885.761C183.265 652.494 65.9826 161.521 488.195 43.4276C910.421 -74.6524 1137.17 88.6144 1825.23 100.801C2513.31 113.001 2966.8 -40.079 3193.55 231.948C3420.29 503.948 3162.25 941.574 3224.81 1238.81C3278.67 1494.79 3373.15 1884.08 3153.6 2092.07Z" fill="#8C9DF4"/>
<path d="M2409.69 536.027C2409.69 333.213 2574.09 168.813 2776.89 168.813C2979.69 168.813 3144.11 333.213 3144.11 536.027C3144.11 738.827 2979.69 903.227 2776.89 903.227C2574.09 903.227 2409.69 738.827 2409.69 536.027" fill="#E9F2FF"/>
<path d="M2510.88 536.028C2510.88 389.108 2629.97 270.001 2776.89 270.001C2923.81 270.001 3042.92 389.108 3042.92 536.028C3042.92 682.948 2923.81 802.041 2776.89 802.041C2629.97 802.041 2510.88 682.948 2510.88 536.028Z" fill="#BDD1F9"/>
<path d="M1571.55 886.321L632.147 1090.49L507.151 515.347L1446.55 311.187L1571.55 886.321" fill="#CDE0FB"/>
<path d="M507.151 515.346L1039.35 700.84L1446.55 311.187L507.151 515.346Z" fill="#BDD1F9"/>
<path d="M1571.65 886.801L1022.15 621.721L632.251 1090.96L1571.65 886.801Z" fill="#DCE9F9"/>
<path d="M1446.91 312.813L914.705 127.319L507.504 516.973L1446.91 312.813Z" fill="#BDD1F9"/>
<path d="M2727.56 769.547L2691.93 855.974C2690.25 860.067 2684.87 861.761 2679.97 859.747L2648.81 846.894C2643.92 844.881 2641.28 839.881 2642.97 835.801L2678.6 749.361C2680.28 745.267 2685.67 743.574 2690.56 745.587L2721.72 758.441C2726.61 760.454 2729.25 765.454 2727.56 769.547Z" fill="#EF873A"/>
<path d="M2727.56 769.547L2721.07 785.307C2721.07 785.307 2672.96 772.72 2654.4 808.08L2678.6 749.36C2680.28 745.267 2685.67 743.574 2690.56 745.587L2721.72 758.44C2726.61 760.453 2729.25 765.453 2727.56 769.547Z" fill="#DD5E26"/>
<path d="M2999.48 624.08C2984.41 660.64 2961.37 691.507 2933.21 715.507C2866.68 772.2 2771.52 790.521 2685.16 754.921C2562.23 704.254 2503.64 563.534 2554.32 440.6C2579.05 380.587 2625.24 335.92 2680.36 311.814C2738.13 286.507 2805.72 283.827 2868.64 309.761C2991.57 360.427 3050.15 501.147 2999.48 624.08" fill="#EF873A"/>
<path d="M2988.71 586.214C2978.88 624.908 2959.27 658.534 2933.23 685.148C2933.13 685.241 2933.04 685.321 2932.96 685.388C2880.24 739.054 2801.2 764.041 2723.03 744.161C2681.47 733.588 2645.73 711.761 2618.28 682.734C2618.28 682.734 2618.27 682.721 2618.21 682.654C2575.65 637.668 2553 575.414 2559.33 511.174V511.148C2560.41 500.281 2562.31 489.361 2565.08 478.468C2570.61 456.708 2579.24 436.548 2590.35 418.348C2637.67 340.868 2730.21 298.681 2822.83 318.668C2825.48 319.228 2828.13 319.841 2830.77 320.534C2920.23 343.281 2982.63 418.201 2993.72 504.521C2997.15 531.081 2995.69 558.694 2988.71 586.214" fill="#183368"/>
<path d="M2993.72 504.52C2985.07 518.693 2974.91 531.68 2963.51 543.333C2963.43 543.427 2963.33 543.507 2963.27 543.573C2910.53 597.24 2831.48 622.227 2753.32 602.347C2711.76 591.773 2676.03 569.947 2648.57 540.92C2648.57 540.92 2648.56 540.907 2648.52 540.84C2616.92 507.44 2596.28 464.533 2590.35 418.347C2637.67 340.867 2730.21 298.68 2822.83 318.667C2825.48 319.227 2828.13 319.84 2830.77 320.533C2920.23 343.28 2982.63 418.2 2993.72 504.52" fill="#214175"/>
<path d="M2933 684.574C2937.69 679.441 2947.75 656.508 2952.64 653.281C2957.61 649.988 2960.11 636.961 2963.59 618.388C2967.07 599.814 2974.64 602.574 2976.83 592.361C2979 582.161 2957.16 570.388 2966.97 551.361C2976.77 532.321 2957.36 520.761 2939.87 514.654C2922.39 508.548 2906.53 479.681 2913.25 456.561C2919.96 433.428 2905.97 426.548 2884.24 411.094C2862.51 395.628 2858.71 374.788 2859.36 355.908C2860.03 337.041 2822.61 318.094 2822.61 318.094C2825.25 318.654 2827.91 319.281 2830.55 319.948C2947.53 349.708 3018.24 468.654 2988.48 585.641C2978.64 624.334 2959.05 657.961 2933 684.574" fill="#F8DDBE"/>
<path d="M2931.51 476.72C2927 475.574 2922.77 476.907 2922.05 479.694C2921.35 482.494 2924.04 487.24 2928.55 488.387C2933.05 489.534 2937.68 486.64 2938.39 483.854C2939.11 481.067 2936.03 477.867 2931.51 476.72Z" fill="#214175"/>
<path d="M2870.85 378.053C2868.53 383.253 2869.27 388.626 2872.49 390.066C2875.71 391.493 2881.99 389.239 2884.31 384.039C2886.63 378.839 2884.09 372.666 2880.88 371.226C2877.67 369.786 2873.17 372.853 2870.85 378.053" fill="#214175"/>
<path d="M2872.05 360.747C2869.4 360.2 2866.99 361.107 2866.65 362.747C2866.32 364.387 2868.01 367.067 2870.67 367.6C2873.32 368.147 2875.93 366.333 2876.25 364.68C2876.59 363.04 2874.71 361.28 2872.05 360.747Z" fill="#214175"/>
<path d="M2870.55 368.599C2868.29 368.426 2866.67 369.946 2866.56 371.346C2866.44 372.733 2867.84 373.773 2870.09 373.946C2872.35 374.119 2874.25 372.226 2874.36 370.826C2874.48 369.439 2872.8 368.773 2870.55 368.599Z" fill="#214175"/>
<path d="M2940.8 485.734C2938.28 488.494 2936.77 494.814 2938.49 496.374C2940.2 497.934 2944.59 497.828 2947.09 495.068C2949.61 492.294 2949.32 487.921 2947.61 486.361C2945.89 484.801 2943.32 482.974 2940.8 485.734" fill="#214175"/>
<path d="M2521.35 1221.37C2521.35 1221.37 2439.32 1252.01 2399.69 1219.68C2385.23 1207.88 2373.76 1190.87 2365.71 1173.63C2359.51 1160.36 2355.33 1146.95 2353.36 1135.79C2350.89 1121.72 2351.97 1111.16 2356.95 1108.73C2370.93 1101.8 2521.35 1221.37 2521.35 1221.37Z" fill="#F6A56E"/>
<path d="M2365.71 1173.63C2359.51 1160.36 2355.33 1146.95 2353.36 1135.79C2367.59 1144.96 2419.41 1179.55 2434.71 1202.37C2446.76 1220.29 2398 1195.53 2365.71 1173.63Z" fill="#F6A56E"/>
<path d="M2709.59 2125.4C2696.91 2097.56 2699.23 2135.45 2671.99 2064.17C2665.12 2046.35 2637.17 2005.17 2631.52 1988.48C2631.52 1988.48 2631.49 1988.4 2631.43 1988.37C2631.45 1988.32 2631.44 1988.28 2631.41 1988.2C2630.47 1985.37 2629.52 1982.6 2628.65 1979.84C2624.97 1968.65 2621.68 1958 2618.96 1948.08C2614.13 1930.6 2614.08 1910.51 2617.21 1889.32C2620.72 1865.72 2628.23 1840.67 2637.63 1816.2C2644.95 1797.27 2653.39 1778.68 2662.05 1761.24C2689.91 1705.28 2719.88 1662.11 2719.88 1662.11C2719.88 1662.11 2719.91 1662.17 2719.96 1662.33C2721.31 1666.51 2743.76 1737.83 2756.32 1763.53C2771.73 1795.12 2889 1938.71 2889 1938.71C2889 1938.71 2712.96 2132.73 2709.59 2125.4" fill="#FFB27D"/>
<path d="M2729.13 1725.33C2729.13 1725.33 2722.43 1811.29 2691.27 1826.07C2660.08 1840.81 2558.39 1781.2 2483.84 1684.2C2409.27 1587.15 2531.05 1350.01 2531.05 1350.01C2520.33 1353.96 2457.6 1326.97 2401.09 1301.83C2352.43 1280.17 2308.35 1259.89 2305.96 1261.85C2302.53 1264.67 2240.52 1277.19 2184.63 1286.25C2155.79 1290.91 2128.6 1294.64 2111.93 1295.65C2079.81 1297.56 2060.88 1279.37 2051.65 1266.64C2046.81 1260 2044.64 1254.83 2044.64 1254.83C2044.64 1254.83 2080.31 1238.27 2127.08 1219.24C2188.33 1194.32 2268.61 1165.29 2312.61 1163.96C2390.23 1161.53 2567.68 1238.37 2619.07 1265.45C2670.45 1292.52 2729.13 1725.33 2729.13 1725.33" fill="#FFB27D"/>
<path d="M2544.24 1298.6C2548.41 1304.36 2480.03 1304.04 2401.09 1301.83C2352.43 1280.17 2308.35 1259.89 2305.96 1261.85C2302.53 1264.67 2240.52 1277.19 2184.63 1286.25C2204.49 1270.15 2255.95 1229.61 2335.15 1231.31C2434.31 1233.43 2534.55 1285.27 2544.24 1298.6" fill="#F6A56E"/>
<path d="M2574.95 1244.27L2638.37 1693.51C2638.37 1693.51 2419.17 1706.28 2367.05 1588.72C2358.99 1570.52 2428.11 1558.32 2433.68 1542.56C2454.85 1482.84 2424.07 1391.23 2424.07 1391.23C2392.09 1385.03 2279.88 1312.17 2224.51 1353.01C2186.79 1380.83 2162.63 1411.51 2122.23 1401.01C2115.72 1399.33 2101.16 1387.29 2101.16 1387.29L2192.71 1300.11C2217.71 1276.55 2239.43 1263.39 2267.43 1261.79L2574.95 1244.27" fill="#FFB27D"/>
<path d="M2444.35 1778.21L1446.75 1874.56L1321.8 580.787L2319.4 484.454L2444.35 1778.21" fill="#F3F7FE"/>
<path d="M2710.84 1793L2706.43 1811.08L2809.96 2031.88L2690.57 2102.64C2690.57 2102.64 2582.64 1872.61 2507.43 1874.28C2432.25 1875.95 2325.6 1732.11 2285.28 1615.67C2259.67 1541.76 2234.93 1503.28 2233.81 1481C2233.17 1468.15 2240.35 1460.65 2259.73 1454.87C2266.83 1452.72 2273.97 1453.33 2281.15 1455.99C2327.51 1473.08 2373.77 1576.75 2401.88 1593.49C2409.85 1598.25 2432.64 1612.72 2462.37 1631.89C2521.52 1669.91 2608.27 1726.27 2662.05 1761.24C2691.32 1780.27 2710.84 1793 2710.84 1793" fill="#FFB27D"/>
<path d="M2296.37 1529.29C2282.69 1538.08 2265.37 1535.71 2257.88 1524.03L2234.69 1482.53C2227.2 1470.85 2230.25 1456.31 2243.95 1447.53C2257.63 1438.76 2272.43 1442.64 2279.91 1454.31L2307.64 1492.12C2315.13 1503.79 2310.05 1520.52 2296.37 1529.29" fill="#FFC69F"/>
<path d="M1684.48 1435.4C1684.48 1435.4 1668.93 1455.04 1638.91 1493.31C1629.45 1505.37 1618.57 1519.31 1606.25 1535.03C1554.93 1600.68 1535.4 1697.89 1459.63 1727.8C1427.67 1740.41 1396.76 1780.33 1371.61 1822.27C1371.59 1822.33 1371.55 1822.4 1371.51 1822.48C1337.16 1879.84 1313.81 1940.95 1313.81 1940.95L1191.24 1945.93L1084.89 1950.27C1096.25 1931.6 1104.91 1910.56 1111.44 1888.17C1132.59 1815.69 1131.63 1728.68 1128.56 1659.32C1128.23 1651.71 1127.85 1644.27 1127.49 1637.11C1122.76 1544.77 1137.05 1398.92 1141.97 1361.32C1146.84 1323.71 1107.73 1078.08 1151.72 1053.73C1195.71 1029.43 1202.85 1268.87 1213.63 1276.16C1224.41 1283.45 1254.36 1187.45 1293.57 1063.48C1332.8 939.521 1372.47 962.134 1381.44 975.948C1396.65 999.374 1320.33 1257.95 1320.33 1257.95C1320.33 1257.95 1401.49 1102.08 1423.48 1053.48C1445.48 1004.88 1476.56 950.881 1515.85 968.694C1556.36 987.028 1407.11 1299.25 1412.6 1310.17C1418.09 1321.13 1476.75 1206.29 1520.73 1126.05C1535.76 1098.68 1549.51 1084.68 1561.09 1078.11C1577.84 1068.65 1598.15 1082.91 1594.96 1101.87C1576.12 1213.41 1479.43 1472.89 1488.55 1485.11C1498.33 1498.15 1515.85 1510.72 1572.05 1457.24C1610.95 1420.25 1649.84 1424 1670.11 1429.83C1679.16 1432.39 1684.48 1435.4 1684.48 1435.4" fill="#FFB27D"/>
<path d="M1347.89 1022.39C1337.09 1019.24 1330.83 1007.83 1333.97 997.012L1346.67 960.612C1349.81 949.812 1359.15 943.586 1369.95 946.733C1380.76 949.879 1385.09 960.653 1381.95 971.466L1373.27 1008.48C1370.12 1019.28 1358.69 1025.55 1347.89 1022.39" fill="#FFC69F"/>
<path d="M1158.73 1101.11C1150.57 1101.77 1143.36 1095.64 1142.69 1087.48L1141.85 1059.45C1141.19 1051.29 1145.91 1044.64 1154.07 1043.97C1162.23 1043.31 1167.97 1049.49 1168.64 1057.65L1172.36 1085.05C1173.03 1093.21 1166.89 1100.44 1158.73 1101.11" fill="#FFC69F"/>
<path d="M1483.51 1023.35C1472.43 1018.79 1467.09 1006 1471.64 994.934L1489.16 957.854C1493.72 946.774 1504.29 941.227 1515.37 945.787C1526.44 950.334 1529.81 962.227 1525.27 973.294L1511.92 1011.48C1507.36 1022.55 1494.57 1027.89 1483.51 1023.35" fill="#FFC69F"/>
<path d="M1557.97 1129.81C1548.41 1125.89 1543.81 1114.87 1547.73 1105.31L1562.85 1073.32C1566.79 1063.76 1575.91 1058.99 1585.47 1062.91C1595.03 1066.84 1597.93 1077.09 1594 1086.64L1582.48 1119.59C1578.56 1129.13 1567.53 1133.75 1557.97 1129.81Z" fill="#FFC69F"/>
<path d="M1691.07 1426.88C1691.07 1426.88 1673.69 1449.41 1640.11 1493.31C1638.56 1492.43 1637.12 1491.29 1635.77 1489.95C1626.67 1480.95 1626.41 1465.95 1635.19 1456.65L1666.84 1426.39C1666.87 1426.36 1666.89 1426.33 1666.92 1426.31C1670.96 1422.12 1677.25 1420.99 1682.68 1423.07C1688.07 1425.13 1691.07 1426.88 1691.07 1426.88Z" fill="#FFC69F"/>
<path d="M1365.8 1921.01L1348.04 2014.61V2014.64L1347.97 2014.99V2015L1347.93 2015.13L1304.61 2239.25C1258.93 2243.52 1213.51 2248.84 1168.45 2255.37C1061.33 2270.92 962.265 2279.52 870.96 2281.95L1048.68 1967.13L1049.99 1964.97L1066.72 1936.77L1066.73 1936.72L1072.95 1926.23L1072.99 1926.17L1093.6 1891.47L1099.8 1892.15H1099.83L1109.89 1893.24L1239.89 1907.37H1239.92L1323.92 1916.48L1365.8 1921.01" fill="#EF873A"/>
<path d="M1348.4 2014.99C1348.4 2014.99 1348.25 2015.03 1347.95 2015.13C1340.8 2017.47 1251.76 2045.47 1156.93 2035.79L1155.57 1997.87L1130.43 2029.57C1130.43 2029.57 1080.59 2007.55 1048.68 1967.13L1049.97 1964.97L1066.72 1936.77L1066.75 1936.72L1072.95 1926.23L1072.99 1926.19L1099.8 1892.15H1099.83L1105.65 1884.75L1231.64 1899.15L1239.92 1907.36L1348.05 2014.63L1348.4 2014.99" fill="#E27227"/>
<path d="M1039.53 1958.6C1039.53 1958.6 1066.79 1978.61 1130.23 1994.89L1179.59 1915.6L1177.92 2004.93C1231.95 2014.04 1303.43 2019.04 1395.11 2012.61C1395.11 2012.61 1384.68 1937.69 1351.64 1866.81C1351.64 1866.81 1236.4 1861.8 1123.57 1830.84L1039.53 1958.6" fill="#F3F8FF"/>
<path d="M1221.41 1978.73C1223.55 1974.6 1221.92 1969.52 1217.79 1967.39C1213.64 1965.25 1208.56 1966.88 1206.43 1971.03C1204.29 1975.16 1205.93 1980.24 1210.07 1982.37C1214.2 1984.51 1219.29 1982.88 1221.41 1978.73" fill="#F99746"/>
<path d="M3153.6 2092.07C3118.23 2125.59 3074.69 2154.39 3021.53 2177.17C2941.39 2211.52 2843.89 2230.53 2733.44 2240.05H2733.43L2611.83 2045.49L2611.75 2045.37V2045.35L2611.52 2045.03V2045L2557 1957.11L2592.95 1938.59L2615.43 1927L2679.2 1894.13H2679.23L2732.51 1866.68L2803.11 1830.28L2815.2 1824.04H2815.21L2821.23 1820.93L2855.65 1848.05L2855.72 1848.09L2866.11 1856.29L2866.15 1856.33L2894.11 1878.37H2894.12L2896.27 1880.05L3153.6 2092.07" fill="#EF873A"/>
<path d="M2611.31 2045.53C2611.31 2045.53 2611.47 2045.51 2611.83 2045.49C2619.97 2045.07 2721.11 2038.68 2813.4 1991.85L2799.97 1952.91L2837.84 1975.23C2837.84 1975.23 2879.73 1933.45 2896.28 1880.05L2894.12 1878.37L2866.15 1856.33L2866.11 1856.29L2855.72 1848.08L2855.67 1848.05L2815.21 1824.04H2815.19L2806.4 1818.83L2684.39 1882.59L2679.2 1894.15L2611.52 2045.03L2611.31 2045.53" fill="#E27227"/>
<path d="M2902.21 1867.84C2902.21 1867.84 2882.41 1898.75 2824.51 1940.01L2743.55 1878.95L2780.11 1968.8C2728.92 1999.12 2658.45 2032.08 2563.07 2061.35C2563.07 2061.35 2542.52 1976.27 2548.33 1891.56C2548.33 1891.56 2658.44 1846.6 2760.65 1771.21L2902.21 1867.84" fill="#F3F8FF"/>
<path d="M2725.8 1959.24C2722.03 1955.87 2721.69 1950.09 2725.05 1946.32C2728.41 1942.55 2734.2 1942.2 2737.97 1945.57C2741.75 1948.93 2742.08 1954.72 2738.72 1958.49C2735.36 1962.27 2729.57 1962.6 2725.8 1959.24Z" fill="#F99746"/>
<path d="M1795.95 829.601C1788.39 834.134 1780.56 838.801 1774.27 839.121C1767.93 839.441 1767.35 838.388 1766.89 837.561C1765.09 834.334 1762.6 833.054 1753.19 834.508C1746.08 835.601 1737.59 838.628 1730.11 841.321C1723.79 843.561 1714.35 846.934 1712.04 846.161C1712.04 846.094 1712.04 846.041 1712.05 845.921C1712.59 841.188 1710.63 838.708 1708.91 837.468C1703.87 833.868 1693.67 835.601 1678.57 842.654C1669.69 846.801 1660.51 851.094 1657.93 849.734C1657.11 849.294 1656.49 847.748 1656.11 845.148C1655.73 842.814 1654.28 841.961 1653.47 841.668C1649.68 840.294 1644.29 844.801 1634.31 853.588C1629.31 857.974 1621.09 865.188 1618.17 865.774C1618.16 865.668 1618.13 865.508 1618.13 865.308C1618.07 863.121 1618.21 861.108 1618.55 859.241C1624.64 854.748 1628.91 850.094 1628.4 846.814C1627.87 843.321 1625.55 842.294 1623.69 842.468C1620 842.868 1615.8 848.521 1613.93 856.081C1606.39 861.334 1595.67 867.028 1587.35 868.094C1583.21 868.628 1580.65 867.881 1579.69 865.828C1575.44 856.801 1585.92 812.748 1595.64 792.748C1599.03 785.774 1601 784.374 1601.53 784.121C1608.75 788.521 1604.15 800.161 1604.12 800.294L1608.91 802.228C1611.17 796.668 1613.05 784.761 1603.91 779.508C1602.73 778.841 1600.27 778.108 1597.28 780.854C1586.49 790.801 1568.52 854.254 1575 868.028C1576.8 871.881 1581.6 875.694 1594.17 871.841C1599.79 870.134 1606.77 866.814 1612.96 862.974C1612.93 863.801 1612.93 864.654 1612.96 865.494C1613.08 868.748 1614.6 870.068 1615.85 870.628C1616.72 870.988 1617.67 871.081 1618.69 870.921C1622.97 870.254 1628.88 865.254 1637.73 857.468C1642.05 853.668 1648.33 848.148 1651.15 846.881C1651.67 849.668 1652.69 852.801 1655.51 854.294C1660.13 856.761 1667.35 853.601 1680.77 847.348C1695.52 840.441 1703.41 839.894 1705.88 841.681C1706.21 841.921 1707.21 842.628 1706.91 845.348C1706.6 847.948 1707.69 849.414 1708.65 850.174C1712.21 853.001 1719.07 850.748 1731.84 846.174C1739.12 843.588 1747.36 840.654 1753.97 839.628C1761.47 838.468 1762 839.388 1762.36 840.068C1764.05 843.121 1766.49 844.681 1774.52 844.294C1782.11 843.934 1790.51 838.894 1798.61 834.041C1808.72 827.988 1818.28 822.268 1823.36 827.041L1826.91 823.228C1818.96 815.828 1807.25 822.828 1795.95 829.601" fill="#183368"/>
<path d="M1884.31 823.24C1881.72 823.64 1879.83 823.08 1878.63 821.56C1877.28 819.854 1876.07 815.414 1882.95 804.84L1887.29 807.667C1884.68 811.694 1882.57 816.587 1882.71 818.2C1883.08 818.214 1883.92 818.16 1885.52 817.587C1890.65 815.787 1895.05 810.44 1898.93 805.734C1903.05 800.747 1906.31 796.8 1910.29 797.187C1912.43 797.4 1914.24 798.854 1915.69 801.52C1920.6 810.574 1925.81 809.72 1944.23 802.427C1959.49 796.387 1963.12 797.014 1971.88 798.52C1973.96 798.88 1976.29 799.294 1979.2 799.68C1985.57 800.534 1991.41 796.2 1996.57 792.374C2002.37 788.067 2008.95 783.2 2014.76 789.04L2011.08 792.694C2008.8 790.4 2006.35 791.574 1999.65 796.547C1994 800.734 1986.97 805.947 1978.52 804.814C1975.52 804.414 1973.12 804 1971 803.627C1962.59 802.174 1960.04 801.734 1946.13 807.24C1929.65 813.76 1918.76 818.067 1911.13 803.987C1910.41 802.667 1909.89 802.36 1909.8 802.347C1908.52 802.214 1905.03 806.494 1902.93 809.04C1898.83 814 1893.73 820.187 1887.24 822.48C1886.17 822.854 1885.2 823.107 1884.31 823.24" fill="#183368"/>
<path d="M2104.72 773.08C2104.28 774.987 2102.85 776.774 2100.64 778.4C2099.45 777.08 2098.95 775.68 2099.27 774.534C2100.12 771.6 2102.25 770.187 2103.61 769.987C2103.89 769.947 2104.13 769.934 2104.33 770C2105.07 770.174 2105.05 771.68 2104.72 773.08V773.08ZM2205.45 757.467C2199.03 760.747 2196.2 761.827 2194.07 759.2C2189.29 753.387 2180.73 757.44 2173.19 761.027C2168.33 763.32 2162.87 765.907 2160.27 764.96C2159.87 764.827 2159.33 764.52 2158.88 763.507C2157.56 760.64 2155.71 758.96 2153.39 758.52C2148.51 757.587 2143.43 762.467 2136.97 768.654C2133.2 772.254 2128.92 776.347 2124.45 779.414C2117.75 784.04 2110.29 783.84 2105.11 781.507C2107.47 779.454 2109.12 777.04 2109.77 774.254C2111.09 768.534 2108.39 765.694 2105.63 764.974C2101.59 763.92 2096.07 766.934 2094.29 773.107C2093.53 775.76 2094.2 778.56 2096.09 781.027C2090.12 783.774 2081.55 785.667 2071.87 786.12C2070.96 786.187 2070.2 786.187 2069.61 786.174C2071.32 784.867 2074.13 783.134 2076.97 781.72L2074.65 777.08C2061.88 783.467 2062.75 786.814 2063.08 788.094C2064.03 791.72 2069.49 791.44 2072.12 791.307C2081.71 790.84 2092.6 788.827 2100.25 784.76C2104.45 787.44 2110.43 788.947 2116.72 787.974C2120.25 787.44 2123.91 786.08 2127.41 783.694C2132.23 780.374 2136.65 776.134 2140.55 772.387C2145.05 768.08 2150.15 763.2 2152.4 763.614C2153.17 763.747 2153.84 764.96 2154.16 765.68C2155.11 767.747 2156.57 769.134 2158.52 769.84C2163.13 771.52 2169.08 768.694 2175.4 765.707C2181.24 762.92 2187.85 759.8 2190.05 762.48C2195.04 768.614 2201.84 765.12 2207.81 762.094C2213.32 759.267 2219 756.374 2224.87 758.147L2226.37 753.187C2218.49 750.8 2211.27 754.494 2205.45 757.467" fill="#183368"/>
<path d="M1589.23 937.88C1586.65 938.28 1584.76 937.707 1583.56 936.187C1582.21 934.48 1581 930.054 1587.88 919.467L1592.23 922.294C1589.61 926.32 1587.51 931.214 1587.64 932.827C1588.01 932.84 1588.85 932.787 1590.44 932.227C1595.59 930.414 1599.99 925.08 1603.87 920.374C1607.99 915.374 1611.24 911.44 1615.23 911.814C1617.36 912.027 1619.17 913.48 1620.61 916.147C1625.53 925.214 1630.75 924.347 1649.16 917.054C1664.43 911.014 1668.05 911.64 1676.81 913.16C1678.88 913.52 1681.23 913.92 1684.13 914.307C1690.51 915.16 1696.35 910.827 1701.51 907.014C1707.31 902.707 1713.88 897.827 1719.69 903.667L1716.01 907.32C1713.73 905.027 1711.28 906.2 1704.59 911.174C1698.93 915.36 1691.91 920.574 1683.45 919.44C1680.44 919.04 1678.05 918.627 1675.93 918.254C1667.52 916.8 1664.97 916.36 1651.07 921.867C1634.59 928.387 1623.69 932.707 1616.07 918.614C1615.35 917.294 1614.83 916.987 1614.72 916.974C1613.45 916.84 1609.96 921.12 1607.87 923.667C1603.76 928.64 1598.67 934.827 1592.17 937.107C1591.11 937.48 1590.13 937.734 1589.23 937.88" fill="#183368"/>
<path d="M1809.64 887.708C1809.21 889.614 1807.79 891.401 1805.56 893.041C1804.39 891.708 1803.88 890.334 1804.21 889.174C1805.04 886.228 1807.17 884.814 1808.53 884.614C1808.84 884.561 1809.07 884.561 1809.28 884.628C1809.99 884.801 1809.97 886.308 1809.64 887.708ZM1910.4 872.094C1903.96 875.374 1901.12 876.454 1898.99 873.828C1894.24 868.028 1885.68 872.081 1878.11 875.668C1873.28 877.948 1867.79 880.548 1865.21 879.614C1864.8 879.454 1864.27 879.148 1863.8 878.148C1862.48 875.268 1860.63 873.588 1858.31 873.148C1853.43 872.214 1848.35 877.094 1841.91 883.294C1838.13 886.894 1833.88 890.974 1829.41 894.041C1822.67 898.668 1815.21 898.468 1810.04 896.148C1812.39 894.094 1814.05 891.681 1814.69 888.881C1816.03 883.161 1813.31 880.321 1810.57 879.614C1806.52 878.561 1800.99 881.588 1799.21 887.748C1798.47 890.388 1799.13 893.188 1801.01 895.654C1795.05 898.401 1786.51 900.294 1776.81 900.748C1775.88 900.814 1775.13 900.814 1774.53 900.801C1776.24 899.494 1779.07 897.774 1781.89 896.348L1779.59 891.708C1766.8 898.094 1767.67 901.454 1768 902.721C1768.96 906.348 1774.44 906.081 1777.07 905.934C1786.65 905.494 1797.55 903.468 1805.19 899.401C1809.37 902.068 1815.36 903.574 1821.64 902.601C1825.2 902.068 1828.85 900.708 1832.33 898.321C1837.15 895.001 1841.57 890.761 1845.49 887.014C1849.99 882.708 1855.09 877.828 1857.35 878.241C1858.11 878.388 1858.77 879.588 1859.09 880.308C1860.05 882.374 1861.51 883.761 1863.44 884.468C1868.07 886.148 1874 883.321 1880.33 880.334C1886.16 877.574 1892.8 874.428 1894.97 877.108C1899.97 883.241 1906.76 879.748 1912.76 876.708C1918.25 873.894 1923.92 871.001 1929.8 872.774L1931.29 867.814C1923.41 865.441 1916.2 869.121 1910.4 872.094" fill="#183368"/>
<path d="M1861.11 1205.84C1853.52 1210.39 1845.71 1215.05 1839.41 1215.36C1833.08 1215.68 1832.51 1214.64 1832.03 1213.81C1830.25 1210.57 1827.73 1209.29 1818.35 1210.75C1811.23 1211.84 1802.73 1214.88 1795.24 1217.55C1788.92 1219.81 1779.48 1223.17 1777.17 1222.43C1777.17 1222.36 1777.17 1222.27 1777.19 1222.17C1777.75 1217.43 1775.77 1214.95 1774.05 1213.71C1769.03 1210.11 1758.83 1211.84 1743.73 1218.89C1734.84 1223.04 1725.67 1227.33 1723.09 1225.97C1722.27 1225.53 1721.65 1223.99 1721.24 1221.4C1720.89 1219.05 1719.44 1218.2 1718.6 1217.91C1714.81 1216.55 1709.43 1221.05 1699.45 1229.83C1694.44 1234.21 1686.23 1241.45 1683.32 1242.01C1683.29 1241.91 1683.29 1241.75 1683.28 1241.55C1683.2 1239.36 1683.37 1237.35 1683.69 1235.48C1689.79 1231.01 1694.05 1226.33 1693.56 1223.05C1693 1219.56 1690.68 1218.53 1688.84 1218.71C1685.15 1219.09 1680.92 1224.76 1679.07 1232.33C1671.53 1237.6 1660.83 1243.28 1652.47 1244.33C1648.36 1244.88 1645.79 1244.12 1644.83 1242.07C1640.57 1233.05 1651.07 1188.99 1660.77 1168.99C1664.17 1162.01 1666.16 1160.61 1666.67 1160.37C1673.88 1164.77 1669.31 1176.4 1669.24 1176.53H1669.25L1670.8 1177.15L1674.04 1178.49C1676.33 1172.92 1678.2 1161.03 1669.05 1155.76C1667.85 1155.08 1665.41 1154.35 1662.41 1157.11C1651.64 1167.04 1633.67 1230.49 1640.15 1244.28C1641.95 1248.13 1646.76 1251.93 1659.32 1248.09C1664.95 1246.37 1671.92 1243.07 1678.12 1239.23C1678.08 1240.04 1678.08 1240.89 1678.09 1241.73C1678.21 1245 1679.75 1246.32 1681 1246.87C1681.88 1247.23 1682.8 1247.32 1683.85 1247.17C1688.11 1246.52 1694.01 1241.49 1702.88 1233.71C1707.19 1229.91 1713.47 1224.39 1716.28 1223.12C1716.8 1225.93 1717.84 1229.04 1720.64 1230.52C1725.28 1233 1732.51 1229.85 1745.91 1223.59C1760.65 1216.69 1768.55 1216.13 1771.01 1217.92C1771.36 1218.16 1772.35 1218.87 1772.04 1221.59C1771.75 1224.19 1772.85 1225.65 1773.8 1226.41C1777.36 1229.24 1784.2 1226.99 1796.99 1222.43C1804.25 1219.85 1812.49 1216.89 1819.13 1215.87C1826.61 1214.72 1827.12 1215.65 1827.52 1216.31C1829.19 1219.36 1831.64 1220.93 1839.68 1220.55C1847.24 1220.17 1855.64 1215.15 1863.76 1210.28C1873.87 1204.23 1883.44 1198.51 1888.52 1203.28L1892.04 1199.49C1884.11 1192.07 1872.41 1199.07 1861.11 1205.84" fill="#183368"/>
<path d="M1951.4 1212.16C1948.83 1212.56 1946.92 1211.99 1945.72 1210.47C1944.39 1208.76 1943.17 1204.33 1950.05 1193.75L1954.39 1196.57C1951.77 1200.6 1949.68 1205.49 1949.81 1207.11C1950.19 1207.13 1951.03 1207.07 1952.61 1206.51C1957.75 1204.69 1962.15 1199.36 1966.04 1194.65C1970.15 1189.65 1973.4 1185.72 1977.4 1186.11C1979.53 1186.31 1981.35 1187.76 1982.79 1190.43C1987.69 1199.49 1992.91 1198.63 2011.33 1191.33C2026.6 1185.29 2030.23 1185.92 2038.99 1187.44C2041.05 1187.8 2043.4 1188.2 2046.31 1188.59C2052.68 1189.44 2058.52 1185.11 2063.67 1181.29C2069.48 1176.99 2076.05 1172.11 2081.87 1177.95L2078.19 1181.6C2075.91 1179.31 2073.45 1180.48 2066.76 1185.45C2061.11 1189.64 2054.08 1194.85 2045.61 1193.72C2042.61 1193.32 2040.21 1192.91 2038.11 1192.55C2029.68 1191.08 2027.15 1190.64 2013.24 1196.15C1996.75 1202.68 1985.87 1206.99 1978.23 1192.89C1977.52 1191.57 1977 1191.27 1976.89 1191.25C1975.63 1191.13 1972.13 1195.4 1970.03 1197.95C1965.93 1202.92 1960.83 1209.11 1954.33 1211.39C1953.28 1211.76 1952.29 1212.01 1951.4 1212.16" fill="#183368"/>
<path d="M2171.83 1161.99C2171.37 1163.89 2169.95 1165.69 2167.76 1167.32C2166.56 1166 2166.05 1164.61 2166.39 1163.45C2167.21 1160.52 2169.35 1159.12 2170.72 1158.89C2171 1158.84 2171.23 1158.87 2171.44 1158.89C2172.16 1159.09 2172.15 1160.59 2171.83 1161.99V1161.99ZM2272.56 1146.37C2266.13 1149.67 2263.29 1150.75 2261.16 1148.12C2256.39 1142.29 2247.84 1146.36 2240.27 1149.92C2235.44 1152.23 2229.97 1154.81 2227.37 1153.87C2226.96 1153.73 2226.44 1153.41 2225.97 1152.41C2224.65 1149.56 2222.8 1147.87 2220.48 1147.44C2215.6 1146.51 2210.52 1151.39 2204.08 1157.55C2200.31 1161.19 2196.04 1165.25 2191.57 1168.32C2184.84 1172.95 2177.39 1172.75 2172.21 1170.4C2174.56 1168.37 2176.23 1165.95 2176.87 1163.16C2178.2 1157.45 2175.47 1154.61 2172.73 1153.91C2168.69 1152.84 2163.17 1155.87 2161.41 1162.01C2160.63 1164.69 2161.29 1167.45 2163.19 1169.95C2157.23 1172.68 2148.67 1174.57 2138.97 1175.05C2138.05 1175.09 2137.29 1175.09 2136.69 1175.08C2138.4 1173.79 2141.23 1172.05 2144.07 1170.63L2141.75 1166C2128.96 1172.36 2129.84 1175.75 2130.17 1176.99C2131.12 1180.63 2136.6 1180.36 2139.24 1180.23C2148.8 1179.76 2159.71 1177.75 2167.36 1173.68C2171.55 1176.35 2177.52 1177.85 2183.81 1176.89C2187.37 1176.35 2191.01 1174.99 2194.52 1172.6C2199.32 1169.29 2203.76 1165.04 2207.64 1161.31C2212.16 1156.99 2217.24 1152.11 2219.52 1152.53C2220.28 1152.67 2220.95 1153.89 2221.25 1154.6C2222.23 1156.65 2223.69 1158.04 2225.6 1158.73C2230.24 1160.43 2236.2 1157.6 2242.49 1154.61C2248.33 1151.85 2254.96 1148.72 2257.15 1151.41C2262.15 1157.51 2268.93 1154.04 2274.93 1151C2280.41 1148.19 2286.09 1145.28 2291.97 1147.05L2293.47 1142.09C2285.59 1139.72 2278.37 1143.4 2272.56 1146.37" fill="#183368"/>
<path d="M1656.33 1326.79C1653.76 1327.19 1651.85 1326.61 1650.65 1325.09C1649.32 1323.39 1648.11 1318.96 1654.99 1308.39L1659.32 1311.2C1656.71 1315.23 1654.6 1320.12 1654.75 1321.75C1655.12 1321.76 1655.96 1321.69 1657.55 1321.13C1662.68 1319.32 1667.08 1313.99 1670.96 1309.28C1675.08 1304.28 1678.35 1300.36 1682.32 1300.73C1684.47 1300.93 1686.28 1302.4 1687.72 1305.05C1692.63 1314.12 1697.84 1313.25 1716.27 1305.96C1731.52 1299.92 1735.16 1300.55 1743.92 1302.07C1745.99 1302.43 1748.33 1302.83 1751.24 1303.21C1757.61 1304.07 1763.45 1299.75 1768.6 1295.92C1774.4 1291.61 1780.99 1286.73 1786.79 1292.59L1783.12 1296.23C1780.84 1293.93 1778.39 1295.11 1771.69 1300.08C1766.04 1304.27 1759.01 1309.48 1750.55 1308.36C1747.55 1307.96 1745.15 1307.53 1743.03 1307.17C1734.61 1305.72 1732.08 1305.27 1718.17 1310.77C1701.68 1317.31 1690.8 1321.61 1683.16 1307.53C1682.45 1306.2 1681.93 1305.89 1681.83 1305.89C1680.55 1305.79 1677.07 1310.03 1674.96 1312.57C1670.87 1317.55 1665.76 1323.73 1659.27 1326.03C1658.21 1326.39 1657.23 1326.65 1656.33 1326.79Z" fill="#183368"/>
<path d="M1876.76 1276.61C1876.33 1278.53 1874.89 1280.33 1872.68 1281.96C1871.48 1280.63 1870.97 1279.24 1871.31 1278.08C1872.15 1275.15 1874.28 1273.75 1875.65 1273.52C1875.92 1273.48 1876.17 1273.49 1876.36 1273.52C1877.08 1273.73 1877.07 1275.21 1876.76 1276.61ZM1977.49 1261C1971.05 1264.28 1968.21 1265.37 1966.08 1262.75C1961.33 1256.92 1952.77 1260.99 1945.21 1264.55C1940.39 1266.85 1934.89 1269.45 1932.31 1268.51C1931.91 1268.36 1931.37 1268.05 1930.91 1267.05C1929.57 1264.19 1927.75 1262.51 1925.4 1262.07C1920.53 1261.15 1915.44 1266.03 1909 1272.2C1905.23 1275.81 1900.96 1279.91 1896.51 1282.96C1889.76 1287.59 1882.31 1287.37 1877.13 1285.04C1879.51 1283 1881.16 1280.59 1881.79 1277.79C1883.12 1272.08 1880.4 1269.24 1877.67 1268.53C1873.61 1267.48 1868.11 1270.49 1866.33 1276.67C1865.57 1279.31 1866.24 1282.09 1868.12 1284.57C1862.15 1287.31 1853.59 1289.21 1843.91 1289.68C1842.97 1289.72 1842.24 1289.72 1841.65 1289.71C1843.33 1288.41 1846.15 1286.68 1848.99 1285.27L1846.67 1280.63C1833.89 1286.99 1834.76 1290.37 1835.11 1291.61C1836.05 1295.25 1841.53 1294.99 1844.16 1294.85C1853.73 1294.4 1864.64 1292.37 1872.28 1288.32C1876.48 1290.97 1882.45 1292.49 1888.73 1291.52C1892.29 1290.97 1895.96 1289.61 1899.44 1287.23C1904.25 1283.93 1908.68 1279.67 1912.59 1275.93C1917.08 1271.61 1922.19 1266.72 1924.44 1267.16C1925.21 1267.31 1925.88 1268.51 1926.2 1269.23C1927.15 1271.28 1928.61 1272.67 1930.56 1273.39C1935.16 1275.05 1941.12 1272.23 1947.44 1269.24C1953.27 1266.48 1959.89 1263.35 1962.08 1266.04C1967.07 1272.13 1973.85 1268.68 1979.85 1265.63C1985.33 1262.81 1991.01 1259.91 1996.91 1261.68L1998.4 1256.73C1990.52 1254.35 1983.29 1258.03 1977.49 1261" fill="#183368"/>
<path d="M1800.39 980.04C1800.79 974.52 1801.19 968.36 1801.96 965.986C1802.45 966.44 1803.27 967.28 1804.43 968.84C1805.53 970.333 1805.88 972.16 1805.51 974.386C1804.96 977.666 1802.96 981.48 1800.01 985.533C1800.15 983.586 1800.28 981.746 1800.39 980.04V980.04ZM1937.33 1052.81C1935.51 1052.92 1934.2 1052.65 1933.61 1052.05C1932.65 1051.04 1932.96 1048.25 1933.21 1046.01C1933.52 1043.07 1933.83 1040.25 1931.99 1038.39C1931.29 1037.68 1930 1036.88 1927.83 1037.09C1921.4 1037.68 1919.93 1041.05 1918.51 1044.29C1917.21 1047.25 1915.57 1050.95 1909.51 1055.25C1906.8 1057.19 1905.43 1057.76 1904.81 1057.95C1904.52 1056.6 1904.79 1053.25 1904.99 1050.51C1905.25 1047.03 1905.59 1042.72 1905.4 1038.21C1905.32 1036.64 1905.13 1031.85 1901.49 1030.72C1896.24 1029.08 1889.67 1037.25 1879.37 1050.77C1877.72 1052.95 1876.12 1055.05 1874.64 1056.91C1870.35 1062.35 1868.39 1063.36 1867.79 1063.55C1867.17 1062.67 1866.19 1059.03 1867.44 1044.63C1867.6 1043 1867.85 1039.97 1865.37 1039.08C1862.72 1038.13 1861.12 1040.43 1857.25 1046.03C1853.77 1051.04 1849.07 1057.83 1843.91 1061.76C1844.36 1060.51 1844.91 1059.13 1845.29 1058.12C1847.69 1052.07 1848.85 1048.8 1847.07 1046.67C1846.24 1045.67 1844.96 1045.24 1843.55 1045.53C1837.57 1046.65 1834.57 1050.93 1831.71 1055.05C1829.45 1058.27 1827.12 1061.59 1823.2 1063.84C1823.23 1063.55 1823.24 1063.27 1823.25 1062.99C1823.51 1059.08 1823.93 1052.49 1817.65 1050.28C1812.8 1048.56 1809.27 1051.93 1805.17 1055.87C1802.16 1058.75 1798.76 1062 1793.87 1064.64C1785.16 1069.32 1783.07 1069.28 1782.63 1069.07C1780.59 1066.71 1786.87 1047.08 1791.93 1031.29C1796.09 1018.36 1798.07 1005.57 1799.19 994.746C1805.19 987.893 1809.64 981.093 1810.61 975.253C1811.24 971.586 1810.55 968.386 1808.57 965.746C1806.13 962.479 1803.47 959.613 1800.4 960.493C1796.47 961.626 1796.08 967.293 1795.23 979.679C1794.97 983.453 1794.67 987.8 1794.2 992.56C1781.44 1006.57 1761.37 1021.65 1751.88 1028.12L1754.79 1032.4C1756.16 1031.48 1777.32 1016.97 1793.21 1001.08C1792.05 1010 1790.17 1019.85 1787.01 1029.72C1777.65 1058.91 1774.65 1069.2 1779.29 1073.05C1782.56 1075.77 1787.79 1073.8 1796.33 1069.2C1801.84 1066.23 1805.68 1062.55 1808.75 1059.6C1812.53 1055.99 1814.25 1054.56 1815.92 1055.15C1818.13 1055.93 1818.37 1058.12 1818.09 1062.67C1817.92 1065.33 1817.76 1067.84 1819.73 1069.19C1820.95 1069.99 1822.47 1070 1824.23 1069.15C1830.13 1066.32 1833.23 1061.91 1835.95 1058.01C1838 1055.08 1839.72 1052.61 1842.28 1051.37C1841.79 1052.88 1841.01 1054.84 1840.49 1056.21C1838.21 1062.03 1836.68 1065.87 1839.25 1067.89C1841.64 1069.75 1844.77 1067.51 1846.29 1066.44C1852.44 1062.09 1857.68 1054.49 1861.51 1048.99C1861.65 1048.76 1861.81 1048.55 1861.97 1048.32C1861.04 1061.75 1862.12 1066.96 1865.88 1068.45C1869.2 1069.76 1873.03 1067.27 1878.69 1060.13C1880.2 1058.24 1881.83 1056.11 1883.49 1053.91C1888.13 1047.81 1896.61 1036.67 1899.79 1035.73C1899.93 1036.09 1900.16 1036.88 1900.23 1038.44C1900.41 1042.63 1900.09 1046.6 1899.81 1050.11C1899.33 1056.56 1898.99 1060.87 1902.13 1062.63C1903.09 1063.16 1904.15 1063.29 1905.28 1063.12C1907.53 1062.77 1910.05 1061.23 1912.51 1059.48C1919.73 1054.33 1921.84 1049.56 1923.24 1046.37C1924.56 1043.37 1924.92 1042.57 1928.25 1042.25C1928.33 1043.01 1928.16 1044.45 1928.04 1045.47C1927.68 1048.76 1927.25 1052.87 1929.89 1055.64C1931.59 1057.44 1934.12 1058.19 1937.63 1057.99L1937.33 1052.81" fill="#183368"/>
<path d="M1995.44 1048.21C1994.47 1048.36 1993.56 1048.21 1992.79 1047.56C1990.68 1045.77 1991.96 1042.63 1993.91 1037.84C1994.35 1036.77 1994.79 1035.67 1995.2 1034.57C1992.55 1035.19 1986.65 1037.96 1980.96 1041.36L1978.8 1037.75C1995 1028.05 1997.73 1030.29 1998.64 1031.03C1999.29 1031.57 2000.28 1032.83 1999.44 1035.21C1998.96 1036.6 1998.37 1038.05 1997.81 1039.44C1997.32 1040.64 1996.67 1042.23 1996.28 1043.43C1996.69 1043.21 1997.21 1042.92 1997.85 1042.52C2000.53 1040.84 2003.35 1038.39 2006.05 1036C2011.16 1031.52 2015.57 1027.65 2019.68 1028.21C2021.39 1028.45 2022.83 1029.41 2023.92 1031.09C2025.29 1033.2 2027.59 1032.59 2032.89 1030.56C2037.32 1028.88 2042.81 1026.77 2048.52 1028.12C2054.97 1029.64 2058 1028.31 2063.52 1025.88C2066.43 1024.61 2070.04 1023.03 2074.97 1021.59C2088.76 1017.55 2094.25 1022.67 2098.25 1026.41C2098.55 1026.69 2098.85 1026.97 2099.15 1027.24C2101.17 1027.16 2107.95 1022.35 2112.48 1019.13C2121.89 1012.45 2127.89 1008.44 2131.76 1009.19C2132.88 1009.41 2133.79 1010.01 2134.39 1010.95L2130.84 1013.23C2130.87 1013.28 2130.95 1013.32 2130.99 1013.33C2128.92 1012.64 2119.81 1019.11 2114.92 1022.57C2104.91 1029.67 2099.55 1033.25 2096.55 1030.59C2096.16 1030.24 2095.77 1029.87 2095.37 1029.49C2091.75 1026.11 2087.64 1022.27 2076.16 1025.63C2071.49 1027 2068.15 1028.45 2065.21 1029.75C2059.51 1032.25 2055.37 1034.05 2047.56 1032.23C2043.11 1031.17 2038.48 1032.93 2034.4 1034.49C2029.41 1036.4 2023.76 1038.55 2020.39 1033.4C2019.79 1032.48 2019.29 1032.41 2019.11 1032.39C2016.89 1032.09 2012.61 1035.85 2008.84 1039.17C2006 1041.67 2003.05 1044.24 2000.08 1046.09C1998.56 1047.04 1996.93 1047.97 1995.44 1048.21" fill="#183368"/>
<path d="M2042.73 1083.51C2036.99 1086.11 2030.91 1088.15 2028.25 1088.43C2029.53 1086.27 2028.83 1084.87 2028.25 1084.2C2026.95 1082.68 2024.27 1081.48 2008.79 1086.31C1999.8 1089.09 1990.71 1092.63 1986.79 1094.33L1986.32 1094.55C1982.21 1096.29 1976 1098.99 1974.81 1098.27C1974.81 1098.27 1974.39 1097.57 1975.27 1094.64C1976.04 1091.99 1974.71 1090.71 1974.12 1090.28C1967.84 1085.88 1934.71 1108.36 1934.39 1108.6C1931.91 1110.41 1926.53 1110.85 1924.93 1109.39C1924.07 1108.56 1925.04 1106.72 1925.68 1105.69C1927.24 1103.24 1926.67 1101.71 1925.95 1100.84C1923.55 1098.03 1913.83 1100.25 1897.08 1107.47L1898.71 1111.21C1907.73 1107.35 1918.51 1103.67 1922.17 1103.61C1919.13 1108.43 1920.84 1111.17 1922.13 1112.37C1924.11 1114.21 1927.57 1114.69 1930.85 1114.19C1933.11 1113.84 1935.28 1113.04 1936.81 1111.89C1942.95 1107.41 1965.88 1093.8 1971.27 1093.64C1970.57 1096.08 1969.95 1099.44 1972.07 1101.33C1974.97 1103.89 1980.41 1101.53 1987.95 1098.31L1988.41 1098.09C1999.56 1093.27 2019.09 1086.77 2024.4 1086.92C2023.19 1089.15 2023.72 1090.55 2024.41 1091.33C2025.17 1092.21 2027.49 1094.88 2044.43 1087.23L2042.73 1083.51" fill="#183368"/>
<path d="M2967.03 194.054L2999.32 270.747L2930.85 299.574L2898.56 222.881L2967.03 194.054Z" fill="#F9DDBF"/>
<path d="M2811.4 181.56L2892.77 198.974L2877.24 271.627L2795.87 254.227L2811.4 181.56Z" fill="#F9DDBF"/>
<path d="M2502.79 495.147C2503.87 504.387 2503.81 513.374 2502.77 521.827C2498.95 553.214 2481.55 577.427 2458.11 580.174C2428.33 583.667 2400.05 551.254 2394.96 507.801C2391.89 481.667 2397.89 457.507 2409.65 441.614C2417.45 431.067 2427.77 424.16 2439.64 422.774C2469.41 419.28 2497.69 451.694 2502.79 495.147" fill="#738DD8"/>
<path d="M2502.79 495.146C2503.87 504.386 2503.81 513.373 2502.77 521.826C2494.99 532.373 2484.65 539.279 2472.8 540.666C2443.03 544.159 2414.75 511.759 2409.65 468.293C2408.56 459.053 2408.63 450.066 2409.65 441.613C2417.45 431.066 2427.77 424.159 2439.64 422.773C2469.41 419.279 2497.69 451.693 2502.79 495.146" fill="#BDD1F9"/>
<path d="M2509.51 853.707C2511.16 864.147 2503.81 873.854 2493.32 875.081L2491.03 875.347C2480.47 876.587 2471 868.761 2470.25 858.174L2454.89 642.521C2454.87 642.214 2454.84 641.881 2454.81 641.534C2454.81 641.454 2454.81 641.361 2454.8 641.281L2450.27 577.641L2465.35 574.934L2468.2 592.894V592.907L2509.51 853.707" fill="#BDD1F9"/>
<path d="M2468.2 592.893V592.906C2468.19 592.933 2468.19 592.933 2468.19 592.933C2468.19 592.933 2451.79 598.013 2454.8 641.279L2450.27 577.639L2465.35 574.933L2468.2 592.893" fill="#738DD8"/>
<path d="M3028.75 1265.35L3021.47 1261.35C3013.68 1257.08 3010.83 1247.28 3015.09 1239.51L3048.63 1178.37C3052.89 1170.6 3062.69 1167.73 3070.47 1172L3080.91 1177.73C3082.43 1178.56 3082.99 1180.48 3082.15 1182C3081.32 1183.53 3079.4 1184.08 3077.88 1183.25L3067.44 1177.52C3062.71 1174.93 3056.75 1176.67 3054.15 1181.4L3020.61 1242.53C3018.01 1247.27 3019.76 1253.23 3024.49 1255.83L3031.77 1259.83C3036.51 1262.43 3042.48 1260.68 3045.07 1255.95L3067.33 1215.37C3068.17 1213.84 3070.08 1213.28 3071.61 1214.12C3073.13 1214.96 3073.69 1216.87 3072.85 1218.4L3050.6 1258.97C3046.33 1266.76 3036.53 1269.61 3028.75 1265.35" fill="#183368"/>
<path d="M2997.63 1329.55L2984.57 1322.39C2972.44 1315.73 2968.37 1299.75 2975.51 1286.76L3025.92 1194.84C3026.75 1193.32 3028.67 1192.76 3030.19 1193.6C3031.72 1194.44 3032.28 1196.35 3031.44 1197.88L2981.03 1289.79C2975.57 1299.73 2978.52 1311.88 2987.6 1316.87L3000.67 1324.03C3009.75 1329.01 3021.57 1324.97 3027.03 1315.01L3084.45 1210.33C3089.91 1200.37 3086.96 1188.23 3077.88 1183.25C3076.36 1182.41 3075.8 1180.49 3076.63 1178.97C3077.47 1177.45 3079.39 1176.89 3080.91 1177.73C3093.03 1184.39 3097.11 1200.36 3089.97 1213.36L3032.55 1318.05C3025.43 1331.04 3009.76 1336.2 2997.63 1329.55" fill="#183368"/>
<path d="M2877.43 1066.41L2883.2 1060.44C2889.36 1054.05 2899.56 1053.88 2905.95 1060.04L2956.12 1108.45C2962.51 1114.61 2962.68 1124.83 2956.52 1131.2L2948.25 1139.77C2947.05 1141.03 2945.05 1141.05 2943.8 1139.85C2942.56 1138.64 2942.52 1136.65 2943.72 1135.4L2951.99 1126.83C2955.75 1122.95 2955.63 1116.73 2951.75 1112.99L2901.57 1064.56C2897.69 1060.81 2891.48 1060.93 2887.73 1064.81L2881.96 1070.79C2878.21 1074.68 2878.32 1080.89 2882.2 1084.64L2915.51 1116.79C2916.76 1117.99 2916.8 1119.99 2915.59 1121.23C2914.39 1122.48 2912.39 1122.52 2911.13 1121.31L2877.83 1089.17C2871.45 1083.01 2871.27 1072.8 2877.43 1066.41" fill="#FF8C64"/>
<path d="M2823.67 1019.52L2834.01 1008.8C2843.61 998.854 2860.11 999.134 2870.76 1009.41L2946.2 1082.21C2947.44 1083.43 2947.48 1085.41 2946.28 1086.67C2945.07 1087.92 2943.07 1087.95 2941.83 1086.75L2866.39 1013.95C2858.23 1006.07 2845.73 1005.72 2838.53 1013.17L2828.19 1023.89C2821 1031.35 2821.79 1043.83 2829.96 1051.71L2915.87 1134.63C2924.04 1142.51 2936.53 1142.85 2943.72 1135.4C2944.93 1134.15 2946.93 1134.11 2948.17 1135.32C2949.43 1136.52 2949.47 1138.52 2948.25 1139.77C2938.65 1149.72 2922.16 1149.45 2911.51 1139.16L2825.59 1056.24C2814.92 1045.95 2814.05 1029.48 2823.67 1019.52" fill="#FF8C64"/>
<path d="M1713.41 414.627L1709.17 407.48C1704.65 399.84 1707.19 389.96 1714.83 385.44L1774.81 349.907C1782.45 345.387 1792.33 347.92 1796.85 355.56L1802.92 365.8C1803.81 367.294 1803.32 369.227 1801.81 370.12C1800.32 371 1798.39 370.507 1797.51 369.014L1791.44 358.774C1788.69 354.12 1782.67 352.587 1778.03 355.334L1718.03 390.854C1713.39 393.614 1711.84 399.627 1714.59 404.267L1718.83 411.427C1721.57 416.067 1727.6 417.614 1732.24 414.854L1772.07 391.28C1773.56 390.387 1775.49 390.88 1776.39 392.387C1777.27 393.88 1776.77 395.814 1775.28 396.694L1735.45 420.28C1727.81 424.8 1717.93 422.267 1713.41 414.627" fill="#9FC1F4"/>
<path d="M1653.92 454.027L1646.33 441.2C1639.29 429.307 1643.93 413.48 1656.68 405.92L1746.88 352.52C1748.39 351.627 1750.31 352.12 1751.2 353.627C1752.08 355.12 1751.59 357.054 1750.09 357.934L1659.89 411.347C1650.12 417.12 1646.48 429.08 1651.76 438L1659.35 450.814C1664.63 459.734 1676.85 462.28 1686.63 456.494L1789.37 395.654C1799.13 389.88 1802.79 377.92 1797.51 369.014C1796.61 367.507 1797.12 365.587 1798.61 364.694C1800.11 363.814 1802.04 364.307 1802.92 365.8C1809.97 377.707 1805.33 393.534 1792.57 401.08L1689.83 461.907C1677.08 469.467 1660.97 465.92 1653.92 454.027Z" fill="#9FC1F4"/>
<path d="M458.804 1196.87L466.863 1194.85C475.468 1192.69 484.224 1197.93 486.384 1206.53L503.357 1274.16C505.516 1282.77 500.273 1291.53 491.669 1293.68L480.125 1296.59C478.439 1297 476.728 1295.99 476.305 1294.29C475.881 1292.61 476.907 1290.89 478.592 1290.48L490.136 1287.57C495.373 1286.27 498.564 1280.93 497.251 1275.69L480.277 1208.07C478.963 1202.83 473.633 1199.64 468.396 1200.96L460.336 1202.97C455.099 1204.29 451.908 1209.63 453.223 1214.85L464.489 1259.76C464.913 1261.44 463.888 1263.15 462.201 1263.57C460.516 1264 458.805 1262.97 458.383 1261.28L447.115 1216.39C444.956 1207.79 450.199 1199.03 458.804 1196.87" fill="#9FC1F4"/>
<path d="M437.975 1128.64L452.424 1125.01C465.839 1121.64 479.688 1130.6 483.296 1144.97L508.813 1246.64C509.236 1248.33 508.212 1250.04 506.527 1250.47C504.839 1250.89 503.129 1249.87 502.705 1248.17L477.188 1146.51C474.425 1135.49 464.004 1128.6 453.957 1131.12L439.508 1134.75C429.46 1137.27 423.532 1148.27 426.295 1159.28L455.361 1275.09C458.123 1286.09 468.544 1293 478.592 1290.48C480.279 1290.05 481.989 1291.08 482.412 1292.76C482.836 1294.45 481.811 1296.16 480.125 1296.59C466.709 1299.95 452.861 1291 449.253 1276.63L420.188 1160.81C416.581 1146.44 424.56 1132 437.975 1128.64" fill="#9FC1F4"/>
<path d="M276.013 724.279L467.556 139.239L916.785 286.306L725.243 871.359L276.013 724.279" fill="#FCECDB"/>
<path d="M868.743 315.187L885.573 263.787C886.511 260.921 889.623 259.347 892.488 260.281L894.709 261.014C897.573 261.947 899.151 265.054 898.212 267.921L881.381 319.334C880.444 322.187 877.332 323.774 874.468 322.827L872.247 322.107C869.381 321.161 867.805 318.054 868.743 315.187" fill="#183368"/>
<path d="M844.593 307.281L861.424 255.881C862.361 253.014 865.473 251.441 868.337 252.374L870.559 253.108C873.424 254.041 875 257.148 874.063 260.014L857.232 311.428C856.295 314.281 853.183 315.868 850.317 314.921L848.096 314.201C845.232 313.254 843.655 310.148 844.593 307.281Z" fill="#183368"/>
<path d="M779.517 285.973L796.348 234.573C797.287 231.707 800.397 230.133 803.263 231.067L805.484 231.8C808.349 232.733 809.925 235.84 808.988 238.707L792.157 290.12C791.219 292.987 788.108 294.56 785.243 293.613L783.021 292.893C780.156 291.96 778.58 288.84 779.517 285.973" fill="#183368"/>
<path d="M755.368 278.067L772.199 226.667C773.137 223.8 776.248 222.227 779.113 223.16L781.333 223.893C784.199 224.827 785.776 227.934 784.837 230.8L768.007 282.213C767.069 285.08 763.957 286.654 761.092 285.707L758.872 284.987C756.007 284.054 754.431 280.934 755.368 278.067" fill="#183368"/>
<path d="M690.293 256.759L707.124 205.359C708.061 202.493 711.173 200.919 714.037 201.853L716.259 202.586C719.124 203.519 720.7 206.626 719.763 209.493L702.932 260.906C701.995 263.773 698.883 265.346 696.017 264.413L693.796 263.679C690.932 262.746 689.355 259.626 690.293 256.759" fill="#183368"/>
<path d="M666.143 248.853L682.973 197.453C683.912 194.586 687.024 193.013 689.888 193.946L692.109 194.68C694.975 195.613 696.551 198.72 695.612 201.586L678.783 253C677.844 255.866 674.733 257.44 671.868 256.506L669.647 255.773C666.781 254.84 665.205 251.72 666.143 248.853" fill="#183368"/>
<path d="M601.068 227.56L617.899 176.146C618.836 173.28 621.948 171.706 624.813 172.64L627.035 173.373C629.899 174.306 631.476 177.413 630.537 180.28L613.707 231.693C612.769 234.56 609.657 236.133 606.793 235.2L604.572 234.466C601.707 233.533 600.131 230.413 601.068 227.56Z" fill="#183368"/>
<path d="M576.919 219.64L593.749 168.24C594.687 165.374 597.799 163.8 600.664 164.734L602.885 165.467C605.749 166.4 607.327 169.507 606.388 172.374L589.557 223.787C588.62 226.654 585.508 228.227 582.643 227.293L580.421 226.56C577.557 225.627 575.98 222.507 576.919 219.64" fill="#183368"/>
<path d="M511.843 198.347L528.673 146.933C529.612 144.067 532.723 142.493 535.588 143.427L537.809 144.16C540.675 145.093 542.251 148.213 541.313 151.08L524.483 202.48C523.544 205.347 520.433 206.92 517.568 205.987L515.347 205.253C512.481 204.32 510.905 201.213 511.843 198.347" fill="#183368"/>
<path d="M487.693 190.441L504.524 139.027C505.463 136.16 508.573 134.587 511.439 135.521L513.66 136.254C516.525 137.187 518.101 140.307 517.164 143.16L500.333 194.574C499.395 197.441 496.283 199.014 493.417 198.081L491.197 197.347C488.332 196.414 486.756 193.294 487.693 190.441Z" fill="#183368"/>
<path d="M2518.28 1098.83C2518.28 1098.83 2504.87 979.986 2552.91 975.853C2600.95 971.72 2518.28 1098.83 2518.28 1098.83C2525.57 1098.32 2518.28 1098.83 2518.28 1098.83Z" fill="#A8D29F"/>
<path d="M2604.21 1027.89C2637.69 1053.36 2518.31 1098.89 2518.31 1098.89C2518.31 1098.89 2570.75 1002.43 2604.21 1027.89Z" fill="#A8D29F"/>
<path d="M1365.45 543.359C1365.45 543.359 1331.83 438.759 1374.33 426.319C1416.85 413.893 1365.45 543.359 1365.45 543.359C1371.92 541.586 1365.45 543.359 1365.45 543.359Z" fill="#A0D694"/>
<path d="M1429.99 463.894C1464.76 480.761 1365.49 543.428 1365.49 543.428C1365.49 543.428 1395.21 447.014 1429.99 463.894Z" fill="#A0D694"/>
<path d="M2216.89 334.133C2216.79 334.199 2216.48 334.372 2215.97 334.679C2215.37 335.039 2214.48 335.572 2213.33 336.279C2212.24 336.959 2210.88 337.786 2209.28 338.773C2195.96 347.066 2165.87 366.399 2124.28 396.519C2084.29 425.493 2033.69 464.426 1977.2 513.133C1977.2 513.133 1977.2 513.132 1977.2 513.146C1976.63 513.639 1976.05 514.133 1975.47 514.626L1975.43 514.679C1944.99 540.972 1912.84 570.092 1879.75 602.012C1841.85 638.572 1802.69 678.773 1763.4 722.586C1761.51 721.146 1759.6 719.719 1757.72 718.293C1796.93 674.519 1836.03 634.359 1873.88 597.812C1930.73 542.919 1984.8 496.213 2032.39 457.866C2035.61 455.279 2038.79 452.746 2041.95 450.239C2072.12 426.159 2099.51 405.599 2123.09 388.599C2162.32 360.279 2191 341.799 2204.56 333.319C2207.63 331.399 2209.93 329.999 2211.4 329.106C2212.13 328.653 2212.65 328.346 2212.96 328.146C2213.12 328.066 2213.21 328.013 2213.25 327.986L2213.77 328.879L2214.65 330.333L2216.19 332.946L2216.59 333.612L2216.89 334.133" fill="#A8D29F"/>
<path d="M2300.04 349.121C2279.65 353.628 2212.56 335.814 2211.28 330.001C2210 324.174 2263.37 279.801 2283.76 275.308C2304.15 270.814 2324.32 283.694 2328.81 304.081C2333.31 324.454 2320.43 344.628 2300.04 349.121" fill="#F99746"/>
<path d="M2252.13 246.613C2252.35 267.48 2221.12 329.48 2215.16 329.533C2209.2 329.6 2176.75 268.226 2176.55 247.36C2176.33 226.48 2193.09 209.387 2213.97 209.187C2234.84 208.973 2251.93 225.733 2252.13 246.613" fill="#F99746"/>
<path d="M2149.11 261.546C2168.61 268.986 2214.89 320.733 2212.76 326.293C2210.64 331.866 2141.65 339.626 2122.16 332.173C2102.65 324.746 2092.87 302.893 2100.32 283.386C2107.76 263.893 2129.6 254.106 2149.11 261.546" fill="#F99746"/>
<path d="M2132.61 361.92C2146.49 346.32 2211.28 321.4 2215.72 325.36C2220.17 329.32 2202.97 396.56 2189.11 412.16C2175.23 427.76 2151.33 429.16 2135.73 415.293C2120.15 401.413 2118.75 377.52 2132.61 361.92Z" fill="#F99746"/>
<path d="M2218.41 419.027C2209.21 400.294 2210.57 330.894 2215.93 328.267C2221.28 325.627 2277.05 366.947 2286.27 385.68C2295.47 404.414 2287.75 427.08 2269.01 436.28C2250.28 445.494 2227.63 437.76 2218.41 419.027Z" fill="#F99746"/>
<path d="M2227.01 333.919C2230.13 327.799 2227.72 320.306 2221.59 317.172C2215.47 314.052 2207.97 316.479 2204.84 322.599C2201.72 328.719 2204.13 336.212 2210.27 339.346C2216.39 342.479 2223.88 340.053 2227.01 333.919Z" fill="#2A4E96"/>
<path d="M2058.32 342.427C2064.97 368.987 2044.11 457.64 2036.52 459.533C2028.93 461.44 1968.76 393.08 1962.11 366.506C1955.45 339.946 1971.6 313.013 1998.17 306.36C2024.73 299.72 2051.67 315.853 2058.32 342.427" fill="#A8D29F"/>
<path d="M2075.05 489.547C2051.71 485.373 1976.31 508.653 1975.12 515.32C1973.92 521.987 2036.59 569.96 2059.93 574.133C2083.29 578.307 2105.61 562.76 2109.8 539.4C2113.97 516.04 2098.43 493.72 2075.05 489.547Z" fill="#A8D29F"/>
<path d="M2215.57 1689.05L1903.09 2357.84C1892.83 2379.81 1866.69 2389.29 1844.72 2379.03L1495.12 2215.68C1473.15 2205.41 1463.65 2179.28 1473.92 2157.32L1786.4 1488.53C1796.67 1466.56 1822.81 1457.07 1844.77 1467.33L2194.39 1630.68C2201.17 1633.85 2206.77 1638.53 2210.95 1644.13C2215.64 1650.4 2218.56 1657.83 2219.43 1665.57C2220.32 1673.35 2219.13 1681.45 2215.57 1689.05" fill="#AFCDFB"/>
<path d="M2033.56 1555.53L1689.12 1696.72L1786.4 1488.53C1796.67 1466.56 1822.81 1457.07 1844.77 1467.33L2033.56 1555.53Z" fill="#C5DFFF"/>
<path d="M2215.57 1689.05L2049.03 2045.51L1587.68 2258.92L1495.12 2215.68C1473.15 2205.41 1463.65 2179.28 1473.92 2157.32L1621.36 1841.75C1769.09 1777.84 2050.64 1655.97 2152.95 1611.32L2194.39 1630.68C2201.17 1633.85 2206.77 1638.53 2210.95 1644.13L2219.43 1665.57C2220.32 1673.35 2219.13 1681.45 2215.57 1689.05" fill="#96B9ED"/>
<path d="M1842.44 1472.32C1823.27 1463.36 1800.37 1471.67 1791.4 1490.85L1478.92 2159.64C1469.96 2178.83 1478.27 2201.72 1497.45 2210.68L1847.05 2374.04C1866.24 2383 1889.13 2374.68 1898.09 2355.51L2210.59 1686.72C2219.55 1667.53 2211.24 1644.64 2192.05 1635.68L1842.44 1472.32ZM1842.39 2384.03L1492.79 2220.67C1468.09 2209.13 1457.4 2179.67 1468.93 2154.97L1781.41 1486.19C1792.96 1461.51 1822.43 1450.8 1847.11 1462.33L2196.72 1625.69C2221.4 1637.23 2232.11 1666.69 2220.57 1691.39L1908.08 2360.17C1896.55 2384.85 1867.08 2395.56 1842.39 2384.03" fill="#2B478B"/>
<path d="M1096.75 1322.77C1096.75 1322.77 969.444 1307.81 976.837 1256.67C984.232 1205.52 1096.75 1322.77 1096.75 1322.77C1097.99 1315.04 1096.75 1322.77 1096.75 1322.77Z" fill="#A0D694"/>
<path d="M1043.65 1215.8C1078.4 1187.07 1096.83 1322.76 1096.83 1322.76C1096.83 1322.76 1008.91 1244.52 1043.65 1215.8Z" fill="#A0D694"/>
<path d="M1084.55 1742.59L330.777 2106.35L108.064 1644.85L861.836 1281.09L1084.55 1742.59Z" fill="#CDE0FB"/>
<path d="M1084.73 1742.97L565.671 1630.24L330.963 2106.73L1084.73 1742.97Z" fill="#BDD1F9"/>
<path d="M108.064 1644.85L596.307 1693.72L861.836 1281.09L108.064 1644.85Z" fill="#DFEBFD"/>
<path d="M495.412 1509.24L594.203 1332.55C595.932 1329.45 594.816 1325.51 591.723 1323.77C588.629 1322.05 584.684 1323.16 582.955 1326.25L484.164 1502.96C482.433 1506.05 483.549 1510 486.643 1511.72C489.736 1513.45 493.681 1512.33 495.412 1509.24" fill="#2B478B"/>
<path d="M507.501 1503.19L518.209 1484.04L511.576 1480.33L500.868 1499.48L507.501 1503.19Z" fill="#233862"/>
<path d="M829.9 1069.49L555.955 1546.49C548.037 1560.27 530.447 1565.03 516.664 1557.11L510.932 1553.83C497.148 1545.91 492.392 1528.32 500.308 1514.53L774.253 1037.53C782.169 1023.75 799.76 1018.99 813.544 1026.91L819.276 1030.2C833.059 1038.12 837.815 1055.71 829.9 1069.49Z" fill="#2B478B"/>
<path d="M884.805 973.881L582.195 1500.8L526.548 1468.84L829.16 941.934L884.805 973.881Z" fill="#EF873A"/>
<path d="M889.333 901.573L887.481 931.186L884.809 973.893L829.156 941.933L864.697 918.093L889.333 901.573Z" fill="#8C9DF4"/>
<path d="M889.333 901.574L887.481 931.188L864.697 918.094L889.333 901.574Z" fill="#182D4C"/>
<path d="M3095.55 1857.99L2999.91 1705.47C2998.23 1702.8 2994.68 1701.99 2992 1703.67C2989.33 1705.33 2988.52 1708.89 2990.2 1711.56L3085.83 1864.07C3087.51 1866.73 3091.05 1867.56 3093.73 1865.88C3096.4 1864.2 3097.21 1860.65 3095.55 1857.99" fill="#EF873A"/>
<path d="M3095.99 1845.97L3085.61 1829.44L3079.89 1833.03L3090.25 1849.56L3095.99 1845.97Z" fill="#2B478B"/>
<path d="M2895.37 1409.31L3150.44 1826.67C3157.81 1838.72 3154.01 1854.48 3141.95 1861.84L3136.93 1864.91C3124.88 1872.28 3109.12 1868.48 3101.76 1856.41L2846.68 1439.05C2839.31 1427 2843.11 1411.24 2855.17 1403.88L2860.19 1400.81C2872.25 1393.44 2888 1397.24 2895.37 1409.31" fill="#EF873A"/>
<path d="M2844.25 1325.65L3126.01 1786.68L3077.32 1816.44L2795.56 1355.41L2844.25 1325.65" fill="#2B478B"/>
<path d="M2789.79 1291.24L2812.08 1305.33L2844.25 1325.65L2795.56 1355.41L2792.15 1317.51L2789.79 1291.24" fill="#E9F2FF"/>
<path d="M2789.79 1291.24L2812.08 1305.33L2792.15 1317.51L2789.79 1291.24Z" fill="#182D4C"/>
<path d="M611.891 647.279C611.305 645.519 609.533 640.346 624.229 606.533C627.697 598.533 630.788 591.439 634.241 584.213C634.623 583.439 634.623 583.439 634.241 584.213C630.82 591.359 627.437 596.759 624.023 604.639C611.156 634.266 610.055 644.053 611.388 647.893C611.788 648.999 611.779 650.213 611.537 651.359C610.199 657.506 605.735 671.639 595.335 678.413C587.685 683.399 578.161 683.639 567.003 679.133C547.857 671.386 514.859 640.386 506.933 615.879C504.475 608.306 506.241 601.653 508.939 597.359C510.352 595.093 513.093 592.199 516.903 588.186C526.097 578.466 539.417 561.186 555.191 532.839C555.651 531.999 555.661 531.973 555.191 532.839C539.301 561.693 524.304 576.653 515.032 586.413C511.135 590.559 508.305 593.533 506.763 596.013C503.655 600.959 503.453 607.706 506.136 616.026C514.061 640.533 544.84 671.973 564.583 680.879C565.073 681.106 565.575 681.306 566.041 681.506C587.204 690.079 597.863 679.679 604.287 670.426C610.548 661.413 612.779 649.986 611.891 647.279" fill="#E5BD9E"/>
<path d="M661.688 576.947C656.856 581.24 652.365 583.147 648.34 582.6C647.9 582.507 644.081 581.68 638.175 580C637.375 579.787 636.552 579.547 635.68 579.307C615.424 573.333 576.324 558.84 559.007 532.16C558.86 531.92 558.713 531.68 558.567 531.453C558.016 530.613 557.511 529.733 557.029 528.867C550.485 517.2 548.656 504.36 551.695 490.72C554.065 479.973 555.936 469.853 557.761 460.08C567.825 405.867 573.903 373.147 634.467 382.96C653.021 385.96 667.279 390.213 678.236 395.147C714.123 411.347 716.395 433.587 716.681 446.6C717.121 466.627 688.061 553.533 661.688 576.947V576.947ZM717.487 448.08C716.899 421.147 706.633 392.053 634.881 380.427C571.848 370.227 566.956 405.853 556.945 459.693C555.131 469.453 551.533 479.48 549.183 490.173C545.884 505.027 548.053 518.92 555.62 531.493C556.003 532.213 556.432 532.88 556.86 533.547C556.957 533.707 557.056 533.867 557.164 534C568.273 550.813 587.713 562.827 605.775 570.973C616.568 575.853 626.871 579.32 634.545 581.627C635.416 581.88 636.264 582.12 637.053 582.373C643.563 584.213 647.693 585.093 647.855 585.107L647.924 585.133C652.747 585.787 657.94 583.693 663.381 578.867C690.831 554.493 717.927 468.973 717.487 448.08" fill="#E5BD9E"/>
<path d="M714.336 730.066C615.141 640.64 396.384 563.546 393.928 562.68C396.388 563.546 641.692 647.68 714.336 730.066Z" fill="#E5BD9E"/>
<path d="M593.437 472.946C599.26 472.586 673.623 483.239 698.776 508.586C674.236 483.866 594.241 473.039 593.437 472.946Z" fill="#E5BD9E"/>
<path d="M597.957 421.853C622.635 424.427 679.956 430.36 705.116 455.693C680.579 430.987 598.757 421.96 597.957 421.853Z" fill="#E5BD9E"/>
<path d="M584.061 522.413C599.996 522.359 664.247 532.706 689.4 558.053C664.86 533.333 584.864 522.519 584.061 522.413Z" fill="#E5BD9E"/>
<path d="M623.756 588.627C672.097 560.054 679.928 491.014 666.035 372.934C665.404 367.56 666.299 370.4 666.583 372.814C680.603 491.974 673.021 559.507 623.756 588.627Z" fill="#E5BD9E"/>
<path d="M510.455 532.654C501.651 528.68 492.507 523.333 485.861 515.36C472.588 499.413 493.627 447.72 506.592 414.12C509.928 405.48 515.717 394.72 516.424 391.813C517.251 388.413 510.004 380.427 504.496 371.867C494.757 356.76 481.419 336.054 485.688 317.12C487.859 307.494 494.444 299.214 505.261 292.507C554.445 262.027 602.256 310.747 606.184 314.893C664.957 335.84 709.035 359.147 724.772 392.773C738.376 421.853 728.307 445.267 727.872 446.254C727.975 446.014 735.549 425.173 722.42 393.8C709.372 362.613 618.501 316.2 604.543 316.893C604.42 316.76 592.237 303.44 574.095 294.12C549.96 281.72 526.817 279.16 506.193 291.947C495.983 298.267 490.203 308.76 488.189 317.693C484.156 335.56 497.157 355.747 506.649 370.48C512.956 380.28 517.515 387.347 516.424 391.813C515.679 394.88 513.148 401.44 509.648 410.507C497.723 441.413 475.523 498.934 487.831 513.72C497.568 525.414 513.216 531.293 524.644 535.613C532.999 538.747 538.047 540.653 538.564 543.773C538.288 542.107 529.649 540.227 523.74 538C519.689 536.48 515.119 534.76 510.455 532.654" fill="#E5BD9E"/>
<path d="M498.9 1306.12L491.615 1302.12C483.836 1297.85 480.979 1288.05 485.245 1280.28L518.777 1219.15C523.044 1211.37 532.843 1208.51 540.62 1212.77L551.056 1218.51C552.58 1219.33 553.139 1221.25 552.303 1222.77C551.467 1224.29 549.552 1224.85 548.028 1224.03L537.592 1218.29C532.859 1215.71 526.895 1217.44 524.299 1222.17L490.767 1283.31C488.169 1288.04 489.908 1294 494.643 1296.6L501.928 1300.6C506.663 1303.2 512.627 1301.45 515.223 1296.72L537.483 1256.13C538.319 1254.61 540.232 1254.05 541.756 1254.89C543.281 1255.73 543.839 1257.64 543.003 1259.17L520.744 1299.75C516.477 1307.53 506.679 1310.39 498.9 1306.12" fill="#183368"/>
<path d="M467.784 1370.32L454.723 1363.16C442.596 1356.51 438.528 1340.52 445.653 1327.53L496.067 1235.61C496.903 1234.09 498.817 1233.53 500.341 1234.37C501.865 1235.21 502.424 1237.12 501.587 1238.64L451.175 1330.56C445.719 1340.51 448.667 1352.65 457.751 1357.64L470.812 1364.8C479.895 1369.77 491.723 1365.73 497.18 1355.79L554.604 1251.09C560.06 1241.15 557.111 1229 548.028 1224.03C546.503 1223.19 545.945 1221.27 546.781 1219.75C547.617 1218.23 549.531 1217.67 551.056 1218.51C563.183 1225.15 567.251 1241.13 560.124 1254.12L502.701 1358.81C495.575 1371.81 479.911 1376.97 467.784 1370.32" fill="#183368"/>
</svg>
