<svg width="2310" height="1545" viewBox="0 0 2310 1545" fill="none" xmlns="http://www.w3.org/2000/svg">
    <path
        d="M783.88 345.746C781.413 345.746 779.053 344.346 777.96 341.946C776.453 338.679 777.88 334.813 781.147 333.306L1014.19 225.999C1017.45 224.493 1021.33 225.933 1022.83 229.199C1024.33 232.466 1022.91 236.346 1019.64 237.839L786.6 345.146C785.72 345.559 784.8 345.746 783.88 345.746Z"
        fill="#184655" />
    <path
        d="M765.627 765.561C765.36 765.561 765.08 765.547 764.8 765.507C761.227 765.054 758.707 761.787 759.16 758.214L821.733 268.001C822.2 264.427 825.453 261.894 829.027 262.361C832.6 262.814 835.12 266.081 834.667 269.654L772.093 759.867C771.667 763.161 768.867 765.561 765.627 765.561"
        fill="#184655" />
    <path
        d="M1103.89 267.507C1082.96 217.76 1038.51 189 1004.61 203.267C970.72 217.533 960.213 269.427 981.16 319.173C986.333 331.453 992.933 342.453 1000.45 351.84L1113.77 304.133C1112.32 292.187 1109.07 279.787 1103.89 267.507"
        fill="#F7CC7F" />
    <path
        d="M846.573 320.719C846.573 334.879 835.093 346.359 820.933 346.359C806.773 346.359 795.293 334.879 795.293 320.719C795.293 306.559 806.773 295.079 820.933 295.079C835.093 295.079 846.573 306.559 846.573 320.719Z"
        fill="#184655" />
    <path
        d="M1639.23 772.253C1596.39 766.706 1549.44 753.959 1549.44 753.959C1549.44 753.959 1541.79 667.639 1541.48 664.439C1538.72 620.119 1533.23 590.573 1561.89 558.986C1575.52 543.999 1638.81 553.199 1649.39 606.559C1659.2 656.026 1648.85 726.173 1642.13 770.066L1641.76 772.586L1639.23 772.253"
        fill="#B75742" />
    <path
        d="M449.44 1319.83C449.44 1319.83 227.387 1160.47 196.12 1091.37C164.84 1022.28 226.56 1028.91 226.56 1028.91C226.56 1028.91 136.057 906.039 158.573 864.373C181.093 822.706 219.667 842.986 219.667 842.986C219.667 842.986 186.507 706.519 221.8 696.413C287.547 677.613 345.467 857.986 345.467 857.986C345.467 857.986 352.413 786.12 380.64 792.053C443.52 805.266 413.64 968.986 413.64 968.986C413.64 968.986 431.173 907.546 465.947 934.213C528.333 982.066 449.44 1319.83 449.44 1319.83"
        fill="#355389" />
    <path
        d="M472.653 925.227C439.68 902.36 417.24 937.4 417.24 937.4C417.24 937.4 443.213 806.653 380.64 792.053C347.773 784.373 345.467 857.987 345.467 857.987C345.467 857.987 287.547 677.613 221.8 696.413L450.16 1317.23C459.013 1277.99 525.253 961.72 472.653 925.227"
        fill="#466EB6" />
    <path
        d="M388.493 1270.32C388.493 1270.32 160.107 1270.41 128.34 1266.72C96.5733 1263.03 131.671 1234.67 131.671 1234.67C131.671 1234.67 60.604 1237.25 49.772 1219.97C38.94 1202.68 67.9654 1195.88 67.9654 1195.88C67.9654 1195.88 -2.80794 1175.36 0.570724 1160.32C6.86406 1132.28 85.0293 1150.56 85.0293 1150.56C85.0293 1150.56 55.9987 1136.47 67.7974 1123.36C85.5907 1103.6 161.587 1157.32 161.587 1157.32C161.587 1157.32 138.244 1110.45 149.893 1096.52C195.347 1042.12 388.493 1270.32 388.493 1270.32"
        fill="#9BC1F9" />
    <path
        d="M445.12 1324.96C445.12 1324.96 663.84 1282.51 712.187 1241.91C760.533 1201.31 701.227 1198.15 701.227 1198.15C701.227 1198.15 830.893 1149.04 829.253 1109.41C827.613 1069.8 771.96 1067.45 771.96 1067.45C771.96 1067.45 849.333 998.146 833.453 964.546C809.04 912.906 698.373 1010.83 698.373 1010.83C698.373 1010.83 701.053 925.559 666.733 917.346C614.973 904.972 570.267 1065.09 570.267 1065.09C570.267 1065.09 562.36 1026.44 526.813 1033.81C463.013 1047.03 445.12 1324.96 445.12 1324.96"
        fill="#86B1F2" />
    <path
        d="M324.667 1527.4H631.613C670.707 1483.19 674.627 1417.87 673.747 1351.07C673.32 1317.33 687.6 1292.33 675.907 1263.45L280.16 1268.96C269.227 1298.29 263.36 1330.52 263.8 1364.27C264.627 1427.91 287.707 1485.28 324.667 1527.4Z"
        fill="#F47458" />
    <path
        d="M2208.51 1520.35H73.0214C66.2587 1520.35 60.7773 1525.83 60.7773 1532.59C60.7773 1539.35 66.2587 1544.84 73.0214 1544.84H2208.85C2215.81 1544.84 2221.41 1539.03 2221.08 1532C2220.77 1525.41 2215.11 1520.35 2208.51 1520.35"
        fill="#13375B" />
    <path
        d="M1384.76 69.4127C1430.32 55.2927 1470.44 104.293 1447.8 146.506C1443.73 154.079 1442.72 162.933 1444.61 171.333L1451.09 200.213C1452.88 208.173 1448.24 216.173 1440.45 218.586L1423.2 223.933C1415.4 226.346 1407.07 222.373 1404.03 214.799C1392.97 187.159 1390.91 176.173 1376.36 168.653C1333.83 146.639 1339.2 83.546 1384.76 69.4127Z"
        fill="#F7CC7F" />
    <path
        d="M1372.09 117.866C1369.85 119.812 1370.61 123.879 1372.79 125.946C1375.88 128.892 1381.11 129.346 1385.53 129.586C1383.61 124.999 1382.19 120.879 1379.36 118.519C1377.39 116.866 1372.33 117.652 1372.09 117.866ZM1417.09 111.626C1415.68 115.426 1416.07 119.572 1417.09 123.892C1422.45 121.506 1425.55 118.692 1426.53 115.306C1428.19 109.639 1420.31 103.066 1417.09 111.626ZM1434.21 184.746C1426.11 162.119 1418.07 136.906 1415.36 127.372C1407.09 130.586 1398.28 132.226 1389.43 132.252C1397.05 150.666 1404.27 169.452 1410.92 188.186L1408.49 189.039C1401.75 169.999 1394.4 150.906 1386.63 132.199C1381.23 131.999 1374.88 131.479 1371.01 127.812C1369.21 126.079 1368.12 123.452 1368.17 120.946C1368.33 114.279 1375.93 112.319 1381.01 116.559C1384.37 119.359 1385.95 123.879 1388.36 129.679C1397.35 129.799 1406.32 128.172 1414.69 124.879C1413.49 120.012 1413 115.266 1414.69 110.732C1420.67 94.8258 1442.55 115.666 1417.75 126.399C1419.85 133.866 1428 159.786 1436.63 183.879L1434.21 184.746"
        fill="#FAE0B2" />
    <path
        d="M1444.48 170.599C1444.53 170.839 1444.56 171.093 1444.61 171.333L1451.09 200.213C1452.88 208.173 1448.24 216.173 1440.45 218.586L1423.2 223.933C1415.4 226.346 1407.07 222.373 1404.03 214.799C1399.12 202.506 1395.97 193.506 1392.72 186.639L1444.48 170.599"
        fill="#96D9C9" />
    <path
        d="M1406.37 34.6265L1407.47 5.35982C1407.57 2.51982 1405.36 0.146435 1402.53 0.0397684C1399.69 -0.0668982 1397.32 2.14644 1397.21 4.9731L1396.11 34.2398C1396 37.0798 1398.21 39.4532 1401.04 39.5598C1403.89 39.6798 1406.27 37.4532 1406.37 34.6265Z"
        fill="#FAE0B2" />
    <path
        d="M1461.67 76.4529L1487.91 60.3329C1490.32 58.8529 1491.08 55.6929 1489.6 53.2662C1488.11 50.8529 1484.95 50.0929 1482.53 51.5863L1456.29 67.7062C1453.88 69.1862 1453.13 72.3462 1454.61 74.7596C1456.09 77.1729 1459.25 77.9329 1461.67 76.4529"
        fill="#FAE0B2" />
    <path
        d="M1530.93 146.959C1531.81 144.266 1530.35 141.372 1527.65 140.492C1517.57 137.199 1507.13 134.852 1496.61 133.532C1493.8 133.172 1491.24 135.172 1490.88 137.986C1490.52 140.799 1492.52 143.359 1495.33 143.719C1505.2 144.959 1515 147.159 1524.47 150.252C1527.15 151.119 1530.05 149.679 1530.93 146.959"
        fill="#FAE0B2" />
    <path
        d="M1337.96 67.2795C1340.08 65.3995 1340.28 62.1596 1338.4 60.0396C1329.47 49.9596 1321.57 38.9195 1314.91 27.2129C1313.51 24.7595 1310.37 23.8929 1307.91 25.2929C1305.45 26.6929 1304.59 29.8263 1305.99 32.2929C1313 44.6129 1321.32 56.2396 1330.71 66.8396C1332.6 68.9729 1335.85 69.1462 1337.96 67.2795Z"
        fill="#FAE0B2" />
    <path
        d="M1327.33 116.681C1326.85 113.894 1324.2 112.014 1321.4 112.494L1288.59 118.161C1285.79 118.641 1283.91 121.294 1284.4 124.094C1284.88 126.881 1287.53 128.761 1290.33 128.281L1323.15 122.614C1325.93 122.134 1327.81 119.481 1327.33 116.681Z"
        fill="#FAE0B2" />
    <path
        d="M1318.43 216.013C1318.84 215.799 1319.23 215.546 1319.59 215.213C1328.08 207.493 1335.77 198.839 1342.43 189.479C1344.07 187.173 1343.53 183.973 1341.23 182.319C1338.91 180.679 1335.71 181.226 1334.07 183.533C1327.83 192.293 1320.64 200.386 1312.68 207.613C1310.59 209.519 1310.43 212.773 1312.33 214.866C1313.92 216.613 1316.43 217.013 1318.43 216.013Z"
        fill="#FAE0B2" />
    <path d="M1018.97 1000.31H1491.51V844.627H1018.97V1000.31Z" fill="#13375B" />
    <path d="M823.16 1443.16H1176.57V835.72H823.16V1443.16Z" fill="#FAE0B2" />
    <path d="M969.92 1521.07H1005.77V1441.65H969.92V1521.07" fill="#184655" />
    <path d="M771.107 1521.03H806.973V1442.88H771.107V1521.03" fill="#184655" />
    <path
        d="M1983.27 1520.51H2021.09C1969.2 1486.8 1939.44 1399.29 1923.95 1340.69C1893.95 1227.85 1887.16 1117.85 1887.05 1116.97L1835.67 1124.47C1851.85 1231.24 1895.72 1439.33 1983.27 1520.51"
        fill="#355389" />
    <path d="M629.227 1443.16H1203.93V835.72H629.227V1443.16Z" fill="#355389" />
    <path d="M630 1521.35H672.293V822.239H630V1521.35Z" fill="#184655" />
    <path
        d="M621.72 805.414H987.373C1001.33 805.414 1012.65 793.668 1012.65 779.188V763.588C1012.65 749.108 1001.33 737.361 987.373 737.361H621.72C638.453 756.321 638.733 785.307 622.4 804.627L621.72 805.414"
        fill="#B75742" />
    <path
        d="M627.373 745.16H830.173C844.147 745.16 855.467 756.907 855.467 771.387C855.467 785.88 844.147 797.613 830.173 797.613H627.347C636.827 781.533 636.813 761.213 627.373 745.16"
        fill="#FAE0B2" />
    <path
        d="M727.906 689.72H1032.48C1041.95 689.72 1049.61 697.387 1049.61 706.853V721.253C1049.61 730.72 1041.95 738.387 1032.48 738.387H727.906L728.067 738.213C741.093 724.653 741.026 703.2 727.906 689.72Z"
        fill="#F47458" />
    <path
        d="M733.293 696.934H896.12C905.573 696.934 913.24 704.601 913.24 714.054C913.24 723.507 905.573 731.174 896.12 731.174H733.306C739.28 720.574 739.28 707.521 733.293 696.934Z"
        fill="#FAE0B2" />
    <path
        d="M1595.01 575.359C1572.08 546.239 1523.48 564.639 1541.52 661.106C1541.61 661.652 1546.53 736.866 1544.33 765.946C1521.21 760.572 1479.11 746.599 1448.36 745.026C1448.36 745.026 1410.76 708.386 1395.97 701.719C1385.01 696.786 1355.28 699.279 1355.28 699.279C1355.28 699.279 1311.95 722.172 1315.29 729.559C1319.88 739.666 1344.87 710.972 1358.52 715.639C1358.52 715.639 1326.91 733.359 1334.44 736.559C1341.97 739.772 1354.59 735.559 1360.73 735.132C1366.87 734.706 1389.05 752.986 1406.33 762.066C1409.19 763.572 1415.85 769.426 1428.88 776.572C1442.11 783.826 1456 796.066 1474.05 803.506C1522.59 823.506 1576.52 850.026 1595.19 835.799L1595.09 835.586C1616.41 810.372 1633.24 623.906 1595.01 575.359"
        fill="#F48C7F" />
    <path
        d="M2038.53 634.788C2012.64 629.241 1986.69 643.748 1980.11 667.428L1883.41 1015.12C1879.97 1027.48 1867.88 1036.12 1854.01 1036.12H1558.65C1534.05 1036.12 1514.09 1056.07 1514.09 1080.68C1514.09 1104.65 1533.08 1124.33 1557.04 1125.2L1912.15 1138.11C1935.79 1138.11 1962.17 1106.2 1967.87 1085.09L2074.87 689.414C2081.45 665.067 2065.09 640.481 2038.53 634.788"
        fill="#13375B" />
    <path
        d="M1563.05 1520.51H1582.17C1599.44 1401.75 1602.93 1262.57 1583.64 1082.87L1537.36 1083.81C1568.08 1262.17 1573.13 1401.45 1563.05 1520.51"
        fill="#13375B" />
    <path d="M1451.12 1522.79H1501.08V815.8H1451.12V1522.79Z" fill="#184655" />
    <path
        d="M1353.89 1374.79C1340.91 1398.95 1309.15 1478.59 1307.95 1484.63C1307.6 1486.37 1303.09 1492.17 1301.6 1493.28C1260.59 1497.39 1230.59 1475.36 1207.81 1453.65C1229.32 1455.17 1262.19 1449.61 1266.97 1448.79C1279.45 1446.67 1278.11 1408.72 1285.24 1366.09C1296.29 1371.16 1337.79 1360.2 1353.89 1374.79"
        fill="#F7A491" />
    <path
        d="M1308.08 1484.11C1304.68 1497.44 1290.57 1522.01 1287.85 1521.31C1284.59 1520.47 1163.55 1477.01 1153.13 1459.67C1146.71 1448.96 1179.8 1448.45 1206.44 1449.81C1229.21 1471.52 1301.08 1487.56 1308.08 1484.11"
        fill="#355389" />
    <path
        d="M1744.99 1034.09L1494.97 1061.61L1360.73 1405.81L1279.16 1389.85C1279.16 1389.85 1324.95 1022.05 1351.61 991.279C1424.36 907.333 1678.52 917.266 1678.52 917.266L1744.99 1034.09"
        fill="#3C8F7C" />
    <path
        d="M1527.72 1393.91C1526.67 1410.28 1522.92 1430.12 1523.65 1449.24C1524.15 1462.07 1528.91 1477.67 1529.48 1480.08C1529.89 1481.81 1528.23 1488.96 1527.32 1490.59C1491.76 1511.41 1455.32 1503.91 1425.56 1493.68C1445.73 1486.08 1459.77 1470.96 1464.85 1465.45C1473.43 1456.15 1467.31 1428.23 1456.01 1386.52C1468.19 1386.52 1507 1387.36 1527.72 1393.91Z"
        fill="#F7A491" />
    <path
        d="M1714.93 883.066C1714.93 883.066 1453.2 897.239 1387.21 993.826C1337.83 1066.11 1460.8 1422.59 1460.8 1422.59L1534.79 1408.95C1534.79 1408.95 1517.73 1167.4 1505.41 1087.69C1503.32 1074.19 1493.71 1034.29 1493.71 1034.29C1493.71 1034.29 1774.11 1061.87 1819.6 1038.21C1865.09 1014.56 1884.16 950.399 1864.15 908.546C1844.12 866.693 1714.93 883.066 1714.93 883.066"
        fill="#50BFA5" />
    <path
        d="M1529.35 1479.53C1533.97 1487.99 1536.35 1520.73 1533.59 1521.23C1530.27 1521.81 1391.16 1529.61 1374.47 1518.19C1364.16 1511.13 1400.79 1503.55 1425.56 1493.68C1455.32 1503.91 1527.85 1488.59 1529.35 1479.53"
        fill="#355389" />
    <path
        d="M1569.25 510.747C1545.95 514.814 1544.52 533.64 1544.52 533.64L1520.64 633.16C1520.64 633.16 1518.44 675.307 1523.28 691.44C1532.69 722.814 1551.72 735.187 1582.89 745.854C1624.2 759.987 1640.53 795.614 1658.36 816.387C1689.27 852.454 1664.11 895.6 1664.11 895.6L1746.31 921.547L1869.29 905.04C1869.29 905.04 1883.11 883.76 1834.16 765.267C1791.67 662.36 1689.8 489.654 1569.25 510.747"
        fill="#F47458" />
    <path
        d="M1633.71 1520.51H1652.49C1676.8 1341.33 1669.45 1141.71 1645.44 963.212C1642.77 943.359 1657.65 925.466 1677.67 924.519L1960.39 911.133V891.612C1960.27 891.599 1721.36 876.986 1614.03 870.826C1593.68 869.666 1577.91 888.306 1582.39 908.186C1585.53 922.146 1589.29 939.692 1593.4 960.706C1628.71 1139.77 1648.12 1338.25 1633.71 1520.51"
        fill="#355389" />
    <path
        d="M1660.55 532.347C1634.03 503.227 1587.11 521.907 1607.96 618.387C1608.08 618.921 1607.89 711.841 1605.35 740.921C1578.63 735.547 1521.05 709.64 1484.55 700.947C1484.55 700.947 1447.51 665.36 1430.41 658.707C1417.75 653.76 1383.36 656.267 1383.36 656.267C1383.36 656.267 1333.25 679.147 1337.13 686.547C1342.44 696.64 1371.32 667.961 1387.11 672.627C1387.11 672.627 1350.56 690.334 1359.27 693.547C1367.97 696.747 1382.56 692.547 1389.67 692.121C1396.76 691.681 1416.24 712.667 1436.23 721.747C1439.52 723.254 1453.4 726.401 1468.47 733.561C1483.75 740.814 1635.71 846.974 1649.68 825.227C1686.69 767.614 1704.73 580.88 1660.55 532.347"
        fill="#F7A491" />
    <path
        d="M1683.55 727.932C1640.71 722.386 1593.76 709.639 1593.76 709.639C1593.76 709.639 1586.11 623.319 1585.8 620.119C1583.04 575.799 1577.55 546.252 1606.23 514.666C1619.84 499.679 1683.13 508.879 1693.71 562.239C1703.52 611.706 1693.17 681.852 1686.45 725.746L1686.08 728.266L1683.55 727.932"
        fill="#B75742" />
    <path
        d="M1549.85 346.627C1553.15 318.04 1553.11 209.414 1619.15 211.654C1685.17 213.894 1685.56 286.56 1739.03 199C1788.57 117.88 1880.07 170.294 1871.56 237.427C1881 238.4 1890.27 241.56 1898.61 247.107C1927.49 266.293 1934.47 306.587 1914.19 337.107C1910.96 341.96 1911.23 347.427 1907.15 351.16C1909.17 381.493 1897.71 413.547 1869.03 442.867C1790.69 522.947 1747.89 414.867 1705.71 412.173C1663.53 409.493 1684.27 446.813 1643.8 465.173C1603.33 483.533 1575.85 471.493 1530.79 391.88L1520.03 370.254C1520.03 370.254 1546.56 375.213 1549.85 346.627"
        fill="#B75742" />
    <path
        d="M1511.77 326.946C1558.24 359.359 1568.51 441.919 1525.75 481.346C1497.95 506.959 1443.2 511.412 1412.8 486.012C1363.51 444.786 1358 398.146 1375.49 361.519C1398.04 314.266 1473.45 300.199 1511.77 326.946Z"
        fill="#B75742" />
    <path
        d="M1526.29 438.8C1526.29 438.8 1540.6 483.24 1591.01 508.88C1597.21 512.026 1520.68 635.12 1520.65 633.653C1520.43 624.16 1533.88 568.706 1530.61 561.893C1521.65 543.24 1469.69 458.213 1469.69 458.213L1526.29 438.8"
        fill="#F7A491" />
    <path
        d="M1497.39 448.707L1469.69 458.213C1469.75 458.293 1492.53 495.573 1510.51 526.16C1516.88 520.933 1522.52 513.347 1527.04 502.96C1534.25 486.333 1535.33 469.027 1532.57 452.573C1528.07 444.307 1526.29 438.8 1526.29 438.8L1497.39 448.707Z"
        fill="#F47458" />
    <path
        d="M1423.17 355.399C1423.17 355.399 1447.97 344.906 1474.95 355.013C1501.91 365.119 1550.37 430.679 1525.4 488.199C1500.43 545.719 1440.72 517.133 1414.23 480.653C1387.72 444.173 1361.35 389.173 1423.17 355.399Z"
        fill="#F7A491" />
    <path
        d="M1530.61 387.973C1509.25 350.867 1485.8 329.106 1452.85 337.546C1419.91 345.986 1390.36 351.64 1388.13 390.307L1385.76 396.907C1385.76 396.907 1433.48 373.6 1453.27 391.84C1473.05 410.08 1514.49 416.026 1520 428.68C1525.51 441.333 1539.15 464.227 1539.15 464.227L1541.6 450.013C1541.6 450.013 1551.99 425.08 1530.61 387.973"
        fill="#B75742" />
    <path
        d="M1480.31 410.706C1484.76 422.213 1494.84 428.866 1502.81 425.546C1510.79 422.24 1513.64 410.213 1509.17 398.706C1504.72 387.2 1494.64 380.546 1486.67 383.866C1478.69 387.173 1475.84 399.186 1480.31 410.706Z"
        fill="#F7A491" />
    <path d="M1195.92 1521.35H1243.41V822.239H1195.92V1521.35Z" fill="#184655" />
    <path
        d="M930.933 454.12C930.933 454.12 964.973 465.626 978.733 501.493C997.426 550.16 968.52 628.16 976.786 649.88C985.04 671.613 1023.93 695.293 1023.93 695.293L1112.15 664.013C1112.15 664.013 1081.29 605.786 1082.16 585.786C1083.03 565.8 1079.99 471.506 1043.05 454.12H930.933"
        fill="#FAE0B2" />
    <path
        d="M1047.4 474.119H976.133C975.173 474.119 974.387 473.332 974.387 472.372C974.387 471.412 975.173 470.639 976.133 470.639H1047.4C1048.36 470.639 1049.13 471.412 1049.13 472.372C1049.13 473.332 1048.36 474.119 1047.4 474.119Z"
        fill="#13375B" />
    <path
        d="M1060 487.586H987C986.04 487.586 985.253 486.799 985.253 485.839C985.253 484.879 986.04 484.106 987 484.106H1060C1060.96 484.106 1061.73 484.879 1061.73 485.839C1061.73 486.799 1060.96 487.586 1060 487.586Z"
        fill="#13375B" />
    <path
        d="M1063.47 502.787H1013.51C1012.55 502.787 1011.76 502.014 1011.76 501.054C1011.76 500.094 1012.55 499.32 1013.51 499.32H1063.47C1064.44 499.32 1065.21 500.094 1065.21 501.054C1065.21 502.014 1064.44 502.787 1063.47 502.787Z"
        fill="#13375B" />
    <path d="M1060.43 804.652H981.64V785.252H1060.43V804.652Z" fill="#13375B" />
    <path d="M1335.07 804.506H1251.05V781.186H1335.07V804.506Z" fill="#13375B" />
    <path d="M981.92 649.666H954.693V603.613H978.733L981.92 649.666" fill="#13375B" />
    <path
        d="M1000.17 575.214C1000.17 594.734 984.346 610.561 964.826 610.561C945.306 610.561 929.493 594.734 929.493 575.214C929.493 555.694 945.306 539.88 964.826 539.88C984.346 539.88 1000.17 555.694 1000.17 575.214Z"
        fill="#466EB6" />
    <path
        d="M983.373 575.213C983.373 585.453 975.067 593.76 964.827 593.76C954.587 593.76 946.293 585.453 946.293 575.213C946.293 564.973 954.587 556.68 964.827 556.68C975.067 556.68 983.373 564.973 983.373 575.213Z"
        fill="#13375B" />
    <path
        d="M1029.29 531.333C1029.29 539.013 1023.07 545.227 1015.39 545.227C1007.71 545.227 1001.48 539.013 1001.48 531.333C1001.48 523.653 1007.71 517.427 1015.39 517.427C1023.07 517.427 1029.29 523.653 1029.29 531.333Z"
        fill="#13375B" />
    <path
        d="M978.573 648.16L971.947 639.013C972.333 638.733 1009.69 611.52 1017.28 589.187C1024.72 567.24 1014.91 543 1014.8 542.76L1025.23 538.427C1025.71 539.573 1036.81 566.76 1027.97 592.827C1019.24 618.573 980.227 646.973 978.573 648.16"
        fill="#13375B" />
    <path
        d="M1119.68 531.333C1119.68 539.013 1113.45 545.227 1105.77 545.227C1098.09 545.227 1091.87 539.013 1091.87 531.333C1091.87 523.653 1098.09 517.427 1105.77 517.427C1113.45 517.427 1119.68 523.653 1119.68 531.333Z"
        fill="#13375B" />
    <path
        d="M1068.96 648.16L1062.33 639.013C1062.72 638.733 1100.08 611.52 1107.67 589.187C1115.11 567.24 1105.28 543 1105.19 542.76L1115.61 538.427C1116.09 539.573 1127.2 566.76 1118.36 592.827C1109.63 618.573 1070.61 646.973 1068.96 648.16"
        fill="#13375B" />
    <path d="M1100.12 533.066H1017.99V526.12H1100.12V533.066Z" fill="#13375B" />
    <path
        d="M1155.96 578.626C1155.96 595.906 1143.77 609.906 1128.73 609.906C1113.69 609.906 1101.49 595.906 1101.49 578.626C1101.49 561.346 1113.69 547.333 1128.73 547.333C1143.77 547.333 1155.96 561.346 1155.96 578.626Z"
        fill="#466EB6" />
    <path d="M1062.24 611H1129.45V547.48H1062.24V611Z" fill="#466EB6" />
    <path
        d="M1096.43 578.906C1096.43 596.186 1081.64 610.199 1063.4 610.199C1045.16 610.199 1030.37 596.186 1030.37 578.906C1030.37 561.626 1045.16 547.626 1063.4 547.626C1081.64 547.626 1096.43 561.626 1096.43 578.906Z"
        fill="#13375B" />
    <path
        d="M1287.27 690.519C1287.27 694.119 1280.56 697.039 1272.28 697.039C1264 697.039 1257.28 694.119 1257.28 690.519C1257.28 686.919 1264 683.999 1272.28 683.999C1280.56 683.999 1287.27 686.919 1287.27 690.519Z"
        fill="#13375B" />
    <path
        d="M1317.68 706.919C1317.68 710.346 1312.24 713.105 1305.52 713.105C1298.8 713.105 1293.35 710.346 1293.35 706.919C1293.35 703.506 1298.8 700.732 1305.52 700.732C1312.24 700.732 1317.68 703.506 1317.68 706.919Z"
        fill="#13375B" />
    <path
        d="M1355.92 706.919C1355.92 710.346 1350.48 713.105 1343.76 713.105C1337.04 713.105 1331.59 710.346 1331.59 706.919C1331.59 703.506 1337.04 700.732 1343.76 700.732C1350.48 700.732 1355.92 703.506 1355.92 706.919Z"
        fill="#13375B" />
    <path
        d="M1337.24 693.013C1337.24 696.44 1331.79 699.213 1325.07 699.213C1318.35 699.213 1312.91 696.44 1312.91 693.013C1312.91 689.6 1318.35 686.826 1325.07 686.826C1331.79 686.826 1337.24 689.6 1337.24 693.013Z"
        fill="#13375B" />
    <path d="M1308.77 754.826H1302.69V709.413H1308.77V754.826Z" fill="#13375B" />
    <path
        d="M1300.31 719.093C1300.31 722.506 1294.85 725.279 1288.13 725.279C1281.41 725.279 1275.97 722.506 1275.97 719.093C1275.97 715.666 1281.41 712.893 1288.13 712.893C1294.85 712.893 1300.31 715.666 1300.31 719.093Z"
        fill="#13375B" />
    <path d="M1291.39 767H1285.31V721.587H1291.39V767Z" fill="#13375B" />
    <path d="M1275.32 740.053H1269.23V694.639H1275.32V740.053Z" fill="#13375B" />
    <path d="M1347.01 754.613H1340.93V709.2H1347.01V754.613Z" fill="#13375B" />
    <path d="M1328.11 745.707H1322.03V697.68H1328.11V745.707Z" fill="#13375B" />
    <path
        d="M1364.61 738V790.467H932.68V648.8H998.44L1023.93 602.733L1183.27 601.973L1198.96 601.907C1192.36 693.693 1279.04 761.467 1364.61 738"
        fill="#13375B" />
    <path
        d="M1364.61 738V754.173C1268.32 777.533 1177 700.88 1183.27 601.973L1198.96 601.906C1192.36 693.693 1279.04 761.467 1364.61 738"
        fill="#466EB6" />
    <path
        d="M1259.45 767H954.4V661.84C954.4 660.4 953.24 659.226 951.8 659.226C950.36 659.226 949.187 660.4 949.187 661.84V769.6C949.187 771.04 950.36 772.213 951.8 772.213H1259.45C1260.89 772.213 1262.07 771.04 1262.07 769.6C1262.07 768.16 1260.89 767 1259.45 767Z"
        fill="#466EB6" />
    <path
        d="M523.147 847.492H1558.19C1568.32 847.492 1576.55 839.279 1576.55 829.145V822.812C1576.55 812.679 1568.32 804.465 1558.19 804.465H523.147C513 804.465 504.787 812.679 504.787 822.812V829.145C504.787 839.279 513 847.492 523.147 847.492"
        fill="#184655" />
    <path d="M666.733 734.88L646.667 736.76L628.36 567.826L634.64 535.093L648.44 565.946L666.733 734.88"
        fill="#B75742" />
    <path
        d="M648.467 566.253L648.44 565.946L638.853 544.533L632.733 545.053L628.467 567.279C634.733 567.306 641.973 567.786 648.467 566.253Z"
        fill="#F7CC7F" />
    <path
        d="M670.373 742.76L650.307 740.8L668.827 589.72C669.453 584.253 673.733 572.373 679.213 572.906C684.813 573.453 685.387 586.053 684.76 591.64L670.373 742.76"
        fill="#13375B" />
    <path
        d="M678.28 586.773C678.24 586.773 678.187 586.76 678.133 586.76C677.507 586.68 677.053 586.107 677.133 585.48L679.827 563.987C679.907 563.36 680.467 562.92 681.107 562.987C681.733 563.067 682.187 563.64 682.107 564.28L679.427 585.76C679.347 586.347 678.853 586.773 678.28 586.773Z"
        fill="#13375B" />
    <path
        d="M678.8 804.6H622.213C613.107 804.6 605.707 797.213 605.707 788.106V662.426H695.307V788.106C695.307 797.213 687.92 804.6 678.8 804.6"
        fill="#50BFA5" />
    <path
        d="M659.24 788.106V662.426H605.707V788.106C605.707 797.213 613.107 804.6 622.213 804.6H642.733C651.853 804.6 659.24 797.213 659.24 788.106"
        fill="#96D9C9" />
    <path
        d="M1325.48 612.373L1324.09 600.546C1323.68 597.226 1323.41 593.133 1323.16 589.839L1323 589.813C1321.67 592.826 1320.2 596.719 1318.81 599.639L1313.75 610.386L1325.48 612.373ZM1310.48 619.079L1306.31 627.946C1305.16 630.386 1302.53 631.746 1299.89 631.306C1295.92 630.626 1293.75 626.306 1295.55 622.719L1317.2 579.586L1332.96 582.266L1339.32 630.146C1339.85 634.146 1336.36 637.506 1332.39 636.826L1331.85 636.746C1329.25 636.293 1327.24 634.199 1326.92 631.573L1325.69 621.666L1310.48 619.079"
        fill="#96D9C9" />
    <path
        d="M1250.63 572.214C1252.12 571.734 1253.8 570.92 1256.23 569.76C1262.67 566.667 1267.21 561.507 1264.03 554.88C1260.99 548.534 1254.08 548.734 1246.97 552.134L1242.12 554.467L1250.63 572.214ZM1237.24 544.294L1241.91 542.04C1249.39 538.467 1251.92 533.454 1249.68 528.787C1247.4 524.027 1242.55 523.254 1236.11 526.347C1233.03 527.814 1231.33 528.854 1230.21 529.627L1237.24 544.294ZM1211.59 526.947C1214.96 524.414 1222.27 520.227 1229.36 516.827C1238.05 512.654 1243.77 510.947 1249.65 511.467C1255.16 511.694 1260.39 514.467 1263.12 520.16C1265.81 525.774 1265.04 532.574 1259.2 538.587L1259.29 538.774C1267.43 537.28 1275.35 540.147 1279.24 548.28C1281.97 553.974 1281.51 559.707 1279.11 564.76C1276.27 570.6 1269.6 576.334 1257.08 582.334C1250.08 585.68 1244.63 587.72 1241.23 588.787L1211.59 526.947"
        fill="#FAE0B2" />
    <path
        d="M1332.39 481.626C1333.59 485.266 1331.65 489.199 1328.01 490.452C1324.65 491.599 1320.35 492.652 1315.33 493.306C1289.17 496.679 1273.6 482.119 1270.83 460.559C1267.49 434.732 1284.05 417.986 1306.97 415.039C1311.55 414.452 1315.61 414.412 1318.93 414.679C1322.88 414.986 1325.72 418.586 1325.24 422.506L1325.21 422.772C1324.75 426.506 1321.43 429.186 1317.68 428.879C1315.25 428.679 1312.55 428.706 1309.57 429.079C1295.99 430.839 1286.49 440.399 1288.65 457.239C1290.61 472.399 1300.83 480.786 1316.09 478.826C1318.65 478.492 1321.32 477.866 1323.73 477.106C1327.35 475.972 1331.2 478.026 1332.39 481.626Z"
        fill="#FAE0B2" />
    <path
        d="M1203.33 393.093C1205.25 392.906 1208.15 391.96 1210.76 391.093C1229.8 384.946 1238.73 370.4 1231.41 348.24C1225.19 328.933 1210.53 322.48 1192.51 328.44C1187.83 329.986 1184.93 331.4 1183.28 332.4L1203.33 393.093ZM1157.27 324.36C1164.57 320.573 1174.39 316.56 1184.99 313.066C1202.6 307.24 1215.07 306.626 1226.24 310.426C1238.24 314.4 1248.07 323.813 1253.48 340.186C1259.33 357.946 1256.92 372.333 1250.48 382.853C1243.39 394.2 1229.8 402.96 1211.64 408.96C1200.76 412.56 1192.83 414.413 1187.37 415.453L1157.27 324.36"
        fill="#96D9C9" />
    <path
        d="M2215.05 1172.95C2215.67 1178.17 2211.93 1182.92 2206.69 1183.53C2201.47 1184.13 2196.73 1180.4 2196.12 1175.17C2195.51 1169.93 2199.25 1165.2 2204.48 1164.59C2209.71 1163.97 2214.44 1167.72 2215.05 1172.95Z"
        fill="#FAE0B2" />
    <path
        d="M2200.88 1179.29C2204.44 1184.72 2212.91 1181.63 2212.16 1175.2C2211.77 1171.85 2208.76 1169.4 2205.32 1169.8C2200.75 1170.33 2198.4 1175.51 2200.88 1179.29Z"
        fill="#F47458" />
    <path
        d="M2262.84 1187.33C2259.44 1191.36 2259.95 1197.37 2263.97 1200.77C2268 1204.17 2274 1203.67 2277.4 1199.64C2280.8 1195.61 2280.29 1189.6 2276.27 1186.2C2272.25 1182.81 2266.24 1183.32 2262.84 1187.33Z"
        fill="#FAE0B2" />
    <path
        d="M2264.75 1199.51C2267.35 1201.69 2271.24 1201.36 2273.44 1198.77C2275.19 1196.71 2275.36 1193.68 2273.88 1191.41C2273.56 1190.92 2273.16 1190.47 2272.71 1190.08C2271.44 1189.03 2269.85 1188.51 2268.21 1188.65C2262.73 1189.11 2260.6 1195.99 2264.75 1199.51Z"
        fill="#F47458" />
    <path
        d="M2219.85 1172.68C2219.84 1177.95 2224.09 1182.23 2229.36 1182.24C2234.61 1182.25 2238.89 1178 2238.92 1172.75C2238.93 1167.48 2234.68 1163.2 2229.41 1163.17C2224.15 1163.16 2219.87 1167.41 2219.85 1172.68Z"
        fill="#FAE0B2" />
    <path
        d="M2229.13 1180.77C2234.05 1180.79 2236.97 1175.29 2234.32 1171.24C2230.93 1166.08 2223.01 1168.57 2222.99 1174.59C2222.97 1177.97 2225.71 1180.76 2229.13 1180.77Z"
        fill="#F47458" />
    <path
        d="M2177.51 1189.08C2180.87 1193.12 2186.88 1193.67 2190.92 1190.29C2194.97 1186.93 2195.52 1180.92 2192.15 1176.88C2188.77 1172.83 2182.76 1172.28 2178.72 1175.65C2174.68 1179.03 2174.13 1185.04 2177.51 1189.08Z"
        fill="#FAE0B2" />
    <path
        d="M2181.13 1188.53C2183.31 1191.13 2187.2 1191.49 2189.81 1189.32C2192.4 1187.15 2192.8 1183.28 2190.6 1180.64C2188.43 1178.03 2184.53 1177.67 2181.92 1179.84C2179.32 1182.01 2178.93 1185.88 2181.13 1188.53"
        fill="#F47458" />
    <path
        d="M2249.59 1299.09C2247.23 1294.39 2249.13 1288.65 2253.83 1286.29C2258.53 1283.93 2264.27 1285.83 2266.63 1290.53C2268.99 1295.24 2267.09 1300.97 2262.39 1303.33C2257.68 1305.69 2251.96 1303.8 2249.59 1299.09Z"
        fill="#FAE0B2" />
    <path
        d="M2251.91 1296.61C2253.63 1299.23 2257.03 1300.13 2259.83 1298.73C2263.09 1297.09 2264.24 1292.93 2262.21 1289.84C2260.49 1287.21 2257.09 1286.31 2254.29 1287.71C2251 1289.36 2249.88 1293.51 2251.91 1296.61Z"
        fill="#F47458" />
    <path
        d="M2281.53 1266.8C2276.71 1264.72 2274.47 1259.11 2276.56 1254.28C2278.64 1249.44 2284.25 1247.21 2289.09 1249.31C2293.92 1251.39 2296.15 1257 2294.07 1261.83C2291.97 1266.67 2286.37 1268.89 2281.53 1266.8Z"
        fill="#FAE0B2" />
    <path
        d="M2278.33 1260.89C2281 1264.96 2287.19 1264.47 2289.13 1259.95C2290.49 1256.83 2289.05 1253.2 2285.92 1251.85C2280.33 1249.44 2274.99 1255.79 2278.33 1260.89Z"
        fill="#F47458" />
    <path
        d="M2285.25 1221.55C2280.21 1223.05 2274.89 1220.19 2273.39 1215.15C2271.88 1210.09 2274.75 1204.79 2279.79 1203.28C2284.83 1201.77 2290.15 1204.63 2291.65 1209.68C2293.16 1214.72 2290.29 1220.03 2285.25 1221.55Z"
        fill="#FAE0B2" />
    <path
        d="M2286.2 1216.09C2286.97 1214.65 2287.15 1212.99 2286.68 1211.4C2285.11 1206.16 2277.93 1205.44 2275.35 1210.24C2274.56 1211.69 2274.39 1213.36 2274.87 1214.93C2276.44 1220.17 2283.6 1220.91 2286.2 1216.09Z"
        fill="#F47458" />
    <path
        d="M2279.37 1271.09C2274.83 1268.44 2268.99 1269.99 2266.33 1274.53C2263.69 1279.09 2265.23 1284.92 2269.79 1287.57C2274.33 1290.21 2280.17 1288.68 2282.81 1284.12C2285.47 1279.57 2283.92 1273.75 2279.37 1271.09"
        fill="#FAE0B2" />
    <path
        d="M2274.63 1284.13C2279.89 1282.75 2280.91 1275.61 2276.16 1272.85C2273.21 1271.15 2269.44 1272.15 2267.72 1275.08C2264.96 1279.84 2269.37 1285.53 2274.63 1284.13"
        fill="#F47458" />
    <path
        d="M2259.01 1184.48C2256.11 1188.87 2250.2 1190.09 2245.8 1187.2C2241.41 1184.31 2240.19 1178.4 2243.08 1174C2245.97 1169.6 2251.88 1168.37 2256.28 1171.27C2260.68 1174.16 2261.91 1180.08 2259.01 1184.48Z"
        fill="#FAE0B2" />
    <path
        d="M2246.8 1186.09C2249.64 1187.96 2253.47 1187.17 2255.35 1184.33C2257.2 1181.51 2256.44 1177.68 2253.57 1175.8C2250.75 1173.93 2246.91 1174.72 2245.04 1177.56C2243.69 1179.61 2243.69 1182.27 2245.04 1184.33C2245.19 1184.51 2245.67 1185.35 2246.8 1186.09Z"
        fill="#F47458" />
    <path
        d="M2286.35 1226.21C2281.16 1227.11 2277.68 1232.04 2278.59 1237.23C2279.48 1242.41 2284.41 1245.89 2289.6 1245C2294.79 1244.11 2298.27 1239.17 2297.37 1233.99C2296.47 1228.8 2291.55 1225.32 2286.35 1226.21"
        fill="#FAE0B2" />
    <path
        d="M2287.12 1241.79C2291.51 1241.03 2293.64 1236 2291.23 1232.33C2289.88 1230.28 2287.44 1229.21 2285.01 1229.64C2281.67 1230.21 2279.41 1233.41 2280 1236.76C2280.57 1240.12 2283.77 1242.36 2287.12 1241.79"
        fill="#F47458" />
    <path
        d="M2190.52 1190.48L2189.01 1191.47L2252 1287.57L2253.51 1286.6L2225.51 1243.63L2266.67 1274.24L2267.73 1272.79L2224.84 1240.89L2275.99 1256.44L2276.51 1254.72L2227.43 1239.8L2278.64 1236.79L2278.53 1235L2225.17 1238.13L2274.33 1217.16L2273.63 1215.51L2226.44 1235.63L2263.73 1200.4L2262.49 1199.09L2223.65 1235.8L2247.83 1188.13L2246.23 1187.32L2223.01 1233.07L2228.93 1182.12L2227.15 1181.91L2220.97 1235L2208.85 1182.95L2207.11 1183.35L2218.73 1233.31L2190.52 1190.48"
        fill="#F47458" />
    <path d="M2021.39 1364.85L2025.61 1371.29L2227.09 1239.31L2222.87 1232.85L2021.39 1364.85" fill="#F47458" />
    <path
        d="M2118.07 929.319C2123.25 936.559 2121.6 946.639 2114.36 951.826C2107.12 957.026 2097.04 955.359 2091.84 948.119C2086.65 940.879 2088.31 930.799 2095.55 925.612C2102.79 920.412 2112.87 922.079 2118.07 929.319Z"
        fill="#FAE0B2" />
    <path
        d="M2102.27 950.334C2111.99 955.454 2122 943.92 2115.61 935.027C2112.29 930.4 2105.81 929.214 2101.05 932.627C2094.72 937.174 2095.49 946.76 2102.27 950.334"
        fill="#F47458" />
    <path
        d="M2200.61 911.44C2198.89 920.173 2204.57 928.667 2213.31 930.4C2222.05 932.134 2230.55 926.44 2232.28 917.707C2234.01 908.96 2228.32 900.467 2219.59 898.747C2210.84 897.013 2202.35 902.693 2200.61 911.44Z"
        fill="#FAE0B2" />
    <path
        d="M2213.43 927.879C2219.07 928.999 2224.56 925.319 2225.68 919.666C2226.57 915.173 2224.36 910.546 2220.32 908.413C2219.43 907.946 2218.48 907.613 2217.48 907.413C2214.75 906.866 2211.96 907.426 2209.64 908.973C2201.92 914.133 2204.39 926.093 2213.43 927.879"
        fill="#F47458" />
    <path
        d="M2124.95 924.987C2129.24 932.787 2139.04 935.64 2146.85 931.347C2154.67 927.054 2157.52 917.254 2153.23 909.44C2148.93 901.627 2139.12 898.774 2131.31 903.067C2123.51 907.36 2120.65 917.174 2124.95 924.987"
        fill="#FAE0B2" />
    <path
        d="M2145.32 929.346C2152.63 925.333 2152.44 914.813 2145.17 910.986C2135.93 906.12 2126.25 916.319 2131.15 925.226C2133.92 930.266 2140.24 932.146 2145.32 929.346"
        fill="#F47458" />
    <path
        d="M2075.68 984.001C2083.99 987.227 2093.33 983.107 2096.56 974.801C2099.79 966.494 2095.67 957.147 2087.35 953.921C2079.04 950.694 2069.69 954.814 2066.47 963.121C2063.25 971.427 2067.37 980.774 2075.68 984.001Z"
        fill="#FAE0B2" />
    <path
        d="M2080.6 980.199C2085.96 982.279 2092.01 979.613 2094.09 974.253C2096.17 968.919 2093.57 962.866 2088.15 960.759C2082.79 958.666 2076.72 961.346 2074.64 966.706C2072.57 972.039 2075.16 978.093 2080.6 980.199"
        fill="#F47458" />
    <path
        d="M2272.65 1087.79C2265.29 1082.76 2263.41 1072.71 2268.44 1065.36C2273.47 1058 2283.51 1056.11 2290.87 1061.15C2298.23 1066.17 2300.11 1076.21 2295.08 1083.57C2290.05 1090.92 2280.01 1092.81 2272.65 1087.79Z"
        fill="#FAE0B2" />
    <path
        d="M2274.04 1082.21C2278.72 1084.67 2284.51 1083.23 2287.51 1078.85C2291 1073.75 2289.29 1066.65 2283.73 1063.73C2279.05 1061.27 2273.27 1062.71 2270.28 1067.08C2266.76 1072.23 2268.49 1079.28 2274.04 1082.21"
        fill="#F47458" />
    <path
        d="M2293.48 1013.77C2284.6 1014.65 2276.71 1008.17 2275.83 999.307C2274.96 990.44 2281.44 982.534 2290.31 981.667C2299.17 980.787 2307.07 987.267 2307.95 996.134C2308.83 1005 2302.35 1012.91 2293.48 1013.77"
        fill="#FAE0B2" />
    <path
        d="M2283.88 1007.65C2291.16 1011.49 2299.93 1005.68 2299.12 997.387C2298.55 991.654 2293.44 987.467 2287.71 988.04C2277.44 989.054 2274.75 1002.84 2283.88 1007.65Z"
        fill="#F47458" />
    <path
        d="M2261.85 943.693C2255.63 950.066 2245.41 950.186 2239.04 943.946C2232.67 937.72 2232.56 927.506 2238.79 921.133C2245.01 914.76 2255.24 914.653 2261.6 920.88C2267.97 927.106 2268.09 937.333 2261.85 943.693Z"
        fill="#FAE0B2" />
    <path
        d="M2258.79 934.866C2258.76 932.08 2257.64 929.466 2255.65 927.52C2249.01 921.04 2237.83 925.84 2237.92 935.093C2237.96 937.88 2239.07 940.493 2241.07 942.44C2247.68 948.906 2258.89 944.133 2258.79 934.866Z"
        fill="#F47458" />
    <path
        d="M2293.79 1021.89C2284.88 1021.71 2277.51 1028.77 2277.31 1037.69C2277.12 1046.6 2284.19 1053.97 2293.11 1054.16C2302.01 1054.36 2309.39 1047.28 2309.57 1038.37C2309.77 1029.47 2302.69 1022.09 2293.79 1021.89Z"
        fill="#FAE0B2" />
    <path
        d="M2297.47 1045.11C2304.12 1038.72 2299.76 1027.35 2290.47 1027.15C2284.72 1027.03 2279.93 1031.61 2279.81 1037.36C2279.61 1046.68 2290.81 1051.48 2297.47 1045.11"
        fill="#F47458" />
    <path
        d="M2192.6 910.334C2191.92 919.227 2184.16 925.88 2175.28 925.2C2166.4 924.52 2159.75 916.774 2160.41 907.88C2161.09 899 2168.85 892.347 2177.73 893.014C2186.63 893.694 2193.28 901.454 2192.6 910.334Z"
        fill="#FAE0B2" />
    <path
        d="M2175.85 922.746C2181.59 923.173 2186.61 918.866 2187.05 913.133C2187.49 907.413 2183.21 902.373 2177.44 901.933C2171.71 901.506 2166.68 905.813 2166.25 911.546C2165.93 915.693 2168.11 919.626 2171.79 921.573C2172.15 921.72 2173.55 922.56 2175.85 922.746Z"
        fill="#F47458" />
    <path
        d="M2267.32 949.721C2260.37 955.307 2259.27 965.454 2264.85 972.401C2270.43 979.347 2280.59 980.454 2287.53 974.881C2294.48 969.294 2295.59 959.147 2290 952.187C2284.43 945.241 2274.27 944.134 2267.32 949.721"
        fill="#FAE0B2" />
    <path
        d="M2281.23 972.146C2287.09 967.426 2286.13 958.24 2279.56 954.786C2275.88 952.84 2271.4 953.266 2268.15 955.88C2263.67 959.48 2262.95 966.053 2266.56 970.546C2270.17 975.053 2276.75 975.733 2281.23 972.146Z"
        fill="#F47458" />
    <path
        d="M2096.11 975.386L2094.69 978.08L2266.79 1068.76L2268.21 1066.07L2191.49 1025.41L2277.55 1036.97L2277.95 1033.96L2188.28 1021.91L2276.75 1002.97L2276.11 1000L2191.21 1018.16L2264.56 971.72L2262.93 969.146L2186.49 1017.55L2242.11 946.173L2239.71 944.306L2186.33 1012.8L2212.65 930.053L2209.75 929.12L2182.33 1015.33L2179.05 924.933L2176 925.04L2179.15 1011.81L2146.12 931.506L2143.31 932.666L2177.72 1016.35L2117.08 949.2L2114.81 951.24L2173.01 1015.68L2096.11 975.386"
        fill="#F47458" />
    <path d="M1988.67 1372.31L2000.2 1378.39L2190.29 1017.69L2178.76 1011.63L1988.67 1372.31Z" fill="#F47458" />
    <path
        d="M2009.69 1382.52C2009.69 1382.52 1877.64 1284.51 1859.55 1242.27C1841.45 1200.01 1878.76 1204.79 1878.76 1204.79C1878.76 1204.79 1825.44 1129.24 1839.59 1104.27C1853.75 1079.31 1883.19 1111.19 1883.19 1111.19C1883.19 1111.19 1858.45 1008.99 1879.96 1003.29C1920.03 992.706 1952.89 1102.71 1952.89 1102.71C1952.89 1102.71 1949.95 1057.04 1975.03 1063.19C2012.84 1072.47 1992.83 1170.79 1992.83 1170.79C1992.83 1170.79 2004.89 1153.35 2025.63 1169.93C2062.83 1199.69 2009.69 1382.52 2009.69 1382.52"
        fill="#466EB6" />
    <path
        d="M2031.21 1172.48C2010.48 1155.89 1992.83 1170.79 1992.83 1170.79C1992.83 1170.79 2012.84 1072.47 1975.03 1063.19C1949.95 1057.04 1952.89 1102.71 1952.89 1102.71C1952.89 1102.71 1920.03 992.706 1879.96 1003.29L2010.68 1382.21C2016.52 1358.55 2065.97 1200.28 2031.21 1172.48Z"
        fill="#355389" />
    <path
        d="M2009.52 1379.12C2009.52 1379.12 1874.19 1378.97 1846.27 1355.52C1818.33 1332.07 1852.59 1330.24 1852.59 1330.24C1852.59 1330.24 1787.92 1295.91 1788.87 1273.01C1789.8 1250.12 1811.73 1254.73 1811.73 1254.73C1811.73 1254.73 1767.03 1214.69 1776.21 1195.28C1790.31 1165.45 1854.24 1222.03 1854.24 1222.03C1854.24 1222.03 1849.35 1199.33 1869.17 1194.6C1899.08 1187.45 1929.41 1272.47 1929.41 1272.47C1929.41 1272.47 1915.12 1234.17 1935.65 1238.43C1972.52 1246.05 2009.52 1379.12 2009.52 1379.12"
        fill="#86B1F2" />
    <path
        d="M2015.13 1386.65C2015.13 1386.65 2135.24 1284.16 2149.91 1242.87C2164.56 1201.57 2129.35 1208.37 2129.35 1208.37C2129.35 1208.37 2175.49 1133.27 2160.52 1110.37C2145.53 1087.47 2124.32 1101.01 2124.32 1101.01C2124.32 1101.01 2136.79 1020.85 2115.99 1016.75C2077.23 1009.11 2052.63 1115.75 2052.63 1115.75C2052.63 1115.75 2052.65 1072.12 2029.17 1079.49C1993.76 1090.61 2018.75 1182.95 2018.75 1182.95C2018.75 1182.95 2005.68 1148.43 1986.96 1165.47C1953.36 1196.04 2015.13 1386.65 2015.13 1386.65"
        fill="#355389" />
    <path
        d="M1978.84 1158.09C2000.56 1145.07 2013.61 1162.44 2013.61 1162.44C2013.61 1162.44 1993.76 1090.61 2029.17 1079.49C2052.65 1072.12 2052.63 1115.75 2052.63 1115.75C2052.63 1115.75 2077.23 1009.11 2115.99 1016.75L2014.6 1385.19C2007.6 1363.03 1952.99 1173.6 1978.84 1158.09Z"
        fill="#466EB6" />
    <path
        d="M2027.23 1371.93C2027.23 1371.93 2159.17 1371.99 2177.52 1369.85C2195.88 1367.72 2175.6 1351.33 2175.6 1351.33C2175.6 1351.33 2216.65 1352.83 2222.91 1342.84C2229.17 1332.85 2212.4 1328.92 2212.4 1328.92C2212.4 1328.92 2253.29 1317.08 2251.33 1308.39C2247.71 1292.19 2202.55 1302.75 2202.55 1302.75C2202.55 1302.75 2219.32 1294.6 2212.51 1287.04C2202.23 1275.61 2158.32 1306.65 2158.32 1306.65C2158.32 1306.65 2174.8 1275.48 2165.08 1271.53C2147.63 1264.44 2027.23 1371.93 2027.23 1371.93"
        fill="#9BC1F9" />
    <path
        d="M2122.48 1520.45H1902.88C1874.92 1494.91 1857.88 1459.72 1858.49 1421.13C1858.81 1401.64 1862.83 1384.64 1871.19 1367.96L2154.32 1371.15C2162.15 1388.09 2166.33 1406.72 2166.03 1426.2C2165.43 1462.97 2148.92 1496.12 2122.48 1520.45"
        fill="#F47458" />
</svg>